<?xml version='1.0' encoding='utf-8'?>
<svg xmlns="http://www.w3.org/2000/svg" width="658.69pt" height="658.69pt" version="1.1" viewBox="0 0 658.69 658.69"> <defs> <radialGradient id="a" cx="1039.1" cy="451.6" r="374.65" gradientTransform="matrix(.77159 0 0 .73321 -472.41 -1.7732)" gradientUnits="userSpaceOnUse"> <stop stop-color="#9f8927" offset="0"/> <stop stop-color="#3b3831" offset="1"/> </radialGradient> </defs> <rect width="658.69" height="658.69" fill="url(#a)"/> <g transform="translate(28.169 -118.73)" stroke-width=".09375"> <path d="m320.76 245.76c-7.6118-0.0396-17.332 2.606-20.193 10.273 2.3357 14.011 0.0428 28.944 6.5586 42.061 3.8114 0.93262 7.6576 1.7057 11.504 2.4785-2.7214-4.2661-9.7627-10.213-4.4883-15.354 10.703-13.656 29.572-16.057 41.879-27.852 2.8512-2.6283 11.597-5.7364 3.1934-6.2676-12.553-3.2289-25.449-5.5274-38.453-5.3398z" fill="#3d3c3c" stroke="#3d3c3c"/> <path d="m357.63 251.36c-8.2197 6.1359-16.41 12.363-26.014 16.257-9.1441 4.6954-19.872 10.29-23.4 20.624-0.47415 4.6231 2.5651 10.553 6.8652 11.42 3.1169 0.6356 8.6898-1.0004 10.406 0.61133-3.1211 8.3761 3.9384 15.236 5.9128 22.865 3.8169 9.9423 6.2379 21.896 16.384 27.523 4.3675 1.8219 0.18729 7.1808 2.582 10.592 4.2243 8.1895 15.645 6.1729 22.031 1.9824 5.8579-4.4479 2.9676-14.994 11.283-16.873 9.6555-5.4496 21.725-4.6657 30.916-10.912 2.4116-1.8442 4.2209-4.575 4.5977-7.623 5.8085 0.56752 8.7247-0.72916 5.3327-6.3727 3.9018-1.3326 4.2957-4.2047 3.6145-7.8363 0.4033-7.9699 1.9715-16.607-2.7031-23.783-2.9808-6.6961-10.941-8.1212-16.195-12.523-3.5302 0.45219-7.2852-3.7696-11.439-2.4141-10.021 2.3314-20.682 1.1996-30.645 2.7988 3.9737-5.2882 10.562-7.4472 15.527-11.592 0.93299-4.7826-1.9751-7.0174-6.0566-8.4238-5.8367-2.9022-12.732-6.2111-19-6.3203zm0.3418 26.629c-0.25848 3.7887 0.66733 7.5282 1.6621 11.152 9.6249 0.55501 18.554-9.7532 27.883-4.0312 8.2216 3.5707 17.361-1.3914 25.525 2.6992 7.1489 2.3626 6.6369 10.626 5.8945 16.68 1.5904 5.657-4.9239 10.23-2.2812 15.883 1.2825 2.7003-3.604 2.7137-4.6191 5.0684-3.5983 4.8808-7.6588 9.807-14.168 10.193-12.055 2.1479-25.847 6.6335-31.221 18.748-1.0164 4.011-6.326 7.5009-9.2715 3.8594 1.2342-5.4404 0.0329-11.589-4.1934-15.461-2.8796 3.1836-3.9495-2.2076-6.5508-3.0664-6.0957-4.4058-6.2899-13.053-9.9258-19.135-1.9745-5.2085-5.5598-11.029-3.5469-16.617 4.8861-1.1164 8.2221-5.9954 7.4238-10.951-8.1651-2.4171-18.059 3.0209-24.955-3.123-2.8318-2.194 3.1087-1.933 4.1465-3.3457 3.964-0.95666 6.8512-7.1988 11.217-3.9766 3.97 2.4664 7.9425-2.3876 12.461-0.99024 4.9815 0.42126 10.987 0.0274 14.52-3.5859z" fill="#4a494b" stroke="#4a494b"/> <path d="m265.21 253.41c-13.466-0.44579-19.462 13.943-30.449 18.969-3.839 2.6117-9.9025 1.0416-11.188 6.418-6.639 10.205-19.732 14.253-31.324 11.48-6.055-1.8608-10.419 4.3926-14.957 7.6484-4.9331 4.1485-9.2474 10.146-7.3281 16.906 0.38433 5.6049 6.1717 12.012 1.0215 16.703-7.3503 10.116-18.425 18.824-21.042 31.588-0.54536 6.2663 1.0561 12.435 1.9719 18.585 9.612-0.12369 16.548 7.8633 25.397 9.6036 7.0146-0.0534 14.122-2.9765 20.698-3.1798 3.0571 2.2573 6.6841 4.4255 10.639 3.998-1.8539 7.9142 5.1667-0.32732 6.6758 1.0098 0.12684 3.4072 5.9167 2.1148 8.8555 2.3027 15.701-1.3723 27.145-13.529 39.976-21.247 9.4156-6.9656 19.752-12.588 30.436-17.218 4.7766-4.1876 3.8031-11.994 9.7752-15.381 4.3452-4.2945 8.773-8.5302 12.662-13.253-0.70606-4.6982-2.1269-8.8994-6.5781-11.227-5.8993-4.2154-11.388-9.8513-18.82-11.045 3.9089 8.7162 15.431 12.03 17.568 21.791-8.8192 10.345-19.083 19.671-29.654 28.285-15.256 10.561-30.468 23.173-48.908 27.403-12.128 0.95446-23.949-2.3479-35.957-2.6875-5.1022 0.88245-11.049 3.3344-15.281-1.0293-4.4008-3.2186-10.966-3.263-14.486-7.3535-2.2582-9.7491 3.5578-19.486 8.0742-27.676 4.2868-6.1862 6.9707-13.336 10.801-19.701 5.943-5.3135 15.076-6.5571 19.104-14.154 5.1201-8.8743 12.347-16.464 21.766-20.957 5.8248-2.896 8.7477-10.794 16.232-10.012 4.3616-0.41026 8.8956 0.76692 12.23 3.6875 6.7574-5.451 13.627-11.549 22.732-12.238 3.9997-0.12359 9.1549-3.3144 11.754 1.084 6.9318 6.9856 3.8619-1.5141 1.4043-6.0742-3.25-9.5919-14.616-13.052-23.801-13.029z" fill="#4d4e50" stroke="#4d4e50"/> <path d="m302.07 253.88c-7.7446 1.7633-15.223 4.0031-22.953 5.8926 4.7543 4.7818 9.8111 9.5983 11.727 16.234 1.5161 3.5417 8.2157 4.064 5 8.7461-4.6694 8.7108 4.8744 2.4505 9.6191 1.7422 3.371-2.0797 0.19955-8.8 0.71289-12.869-0.49135-6.7768-1.129-13.542-1.8808-20.295-0.74154 0.18294-1.4831 0.36588-2.2246 0.54883z" fill="#452720" stroke="#452720"/> <path d="m378.31 262c1.1233 4.1996-5.2605 4.6386-7.4785 7.1309-5.2277 3.0755-9.1167 8.1655-10.299 14.176 12.95-3.7519 26.691-1.9701 39.795-4.5254 4.3738 0.97031 8.2018 5.6603 12.356 1.2604-9.6001-7.5827-21.826-14.698-33.19-20.93-3.1545-2.5622-0.68691 1.6336-1.184 2.8886z" fill="#3c3c3c" stroke="#3c3c3c"/> <path d="m460.73 412.82c-2.9645 0.6637-5.7943 1.7929-8.6758 2.7324 2.9493 1.9433 5.7874 4.0433 8.7441 5.9746 0.13534-3.199 7.4764-12.471-0.0684-8.707z" fill="#3c3c3c" stroke="#3c3c3c"/> <path d="m283.57 264.33c2.5633 6.6324 7.1198 12.501 9.1426 19.234-6.4314 9.2096-18.098 11.664-27.457 16.723 6.6119 2.2375 13.257 4.3751 19.961 6.3203-1.0186-2.9234-6.4691-6.9899-1.248-8.4414 4.7595-3.7412 13.422-2.7647 14.946-9.9047 0.93005-3.9134 4.3034-9.2617-0.90731-11.107-5.3798-2.4782-4.7342-9.389-9.1836-12.881-3.3492-2.9738-9.0824-10.14-5.2539 0.0566z" fill="#4e3e3b" stroke="#4e3e3b"/> <path d="m285.33 265.83c-10.637 1.4924-22.257 2.9387-30.105 11.146-2.5923 3.4909-6.0072-1.2516-9.5176-0.84961-4.9507-0.70544-9.9063 0.46543-14.699 1.5879 1.8786 2.1747 5.063 3.972 2.6445 6.7852-1.0379 1.9205 0.0824 5.4291-3.1094 4.0117-12.486-0.7032-23.472 9.5462-26.697 21.113 5.7447 6.0483 14.458 1.6719 20.508-1.3945 2.3647-2.2824 6.0509 2.0773 2.4785 3.418-10.841 10.453-24.327 17.858-34.277 29.303-8.9506 7.6092-20.512 16.186-20.038 29.314 1.811 1.1554 6.5398-1.2791 9.2978-2.7713 9.7217-6.45 16.938-15.913 25.992-23.226 4.1321-3.7806 8.2361-7.7677 12.381-11.426 6.1417 3.8116 13.835 4.5585 20.723 4.084 0.48783 5.0608-4.6954 8.419-8.3438 11.057-5.0306 3.1572-10.38 5.8618-16.465 5.1172-9.2518 0.94123-15.662 8.7188-24.426 11.168-5.0276 1.6388-6.1835 8.6711-1.7773 11.676 4.379 5.1623 11.519 5.5984 17.43 3.1562 5.4045-2.6907 10.487 2.2952 16.027 0.3418 2.8076-0.21789 6.0251-3.4671 7.3594 0.47852 2.1996 3.8677 6.3198 4.4097 10.182 2.6328 11.741-4.5135 21.852-12.403 32.385-19.136 10.195-7.4177 21.177-13.44 29.637-22.945 3.4189-4.444 11.197-7.979 10.091-14.497-3.2749-8.7946-11.408-14.682-18.695-19.943-5.7069-3.0405-12.109-4.3318-18.195-6.3691 7.8168-3.5902 17.716-7.6638 20.734-16.199-1.7857-6.6974-5.2258-13.257-10.516-17.812l-0.98447 0.17553zm4.1992 61.424c3.6753-0.17594 7.3048 1.606 9.3164 4.7148 5.512-3.8314 6.1222-1.2269 1.5573 2.5701-7.0914 7.7442-15.43 15.345-26.048 17.516-5.3604 9.9177-18.671 10.235-25.15 19.24-2.9336 2.7046-7.239 6.3321-11.092 5.7246-1.2881-4.8315 2.7534-9.7717-0.44922-14.348-0.86044-3.9228 4.578-6.2887 6.1734-9.3992 6.5484-7.226 12.57-15.836 22.496-18.564 7.2783-1.9308 14.558-5.7932 22.123-7.4043 0.35653-0.0504 0.71444-0.0235 1.0723-0.0508z" fill="#5b5b5f" stroke="#5b5b5f"/> <path d="m324.56 284.48c0.25096 4.4234 3.6769 7.6474 7.9844 8.207 3.3733 1.326 7.054 3.1964 9.002 6.2402-3.3713 4.8102-11.83 7.9495-9.9141 15.059 3.6905 9.9467 7.7482 20.963 16.604 27.498 6.3152 3.8933 15.664 2.6868 19.938 9.9102 6.2538-2.1333 8.1859-9.9836 15.308-10.252 7.9482-2.9958 17.333-4.3604 23.988-9.5021 2.453-3.9535 6.6806-6.3766 11.115-7.4492-2.0174-4.4082-3.328-11.171-9.4648-10.729-3.131-0.30336-6.2736 0.14997-9.3438 0.74218 1.3056-5.5369-5.4585-4.7523-8.6602-7.0762-6.4136-3.193-10.599-10.399-18.277-11.299-2.4501-0.83614-7.2321 0.83461-5.2676-3.1016 0.52628-3.5784-2.5555-6.217-5.755-3.7296-3.7624 1.1344-8.898 4.058-10.835-1.0275-1.5941-4.1779-5.3584 1.4146-8.439-1.3874-3.5328-2.3762-7.6803-2.6989-11.676-2.9512-3.2384-0.61557-9.3566-6.1278-6.3066 0.84766zm13.238 26.148c3.4464 0.82866 6.1226 4.9159 8.9844 5.0149 9.2096-5.2333 18.727 3.1465 28.477 1.862 5.0701 0.91808 10.489 3.4926 15.164 4.2852 0.0664 4.1553-5.1555 6.7188-5.4243 9.8009 1.6648 2.9605-5.0125 2.5429-7.1362 4.0702-5.3024 1.782-10.792 5.9041-16.408 2.5644-6.1875-2.8049-13.453-4.6859-16.65-11.408-2.9121-5.1671-7.3334-10.166-7.4805-16.375z" fill="#5b5b5f" stroke="#5b5b5f"/> <path d="m363.89 268.81c-6.9096-1.7918-6.6575 7.7249-12.748 8.4414-5.758 1.2353-12.205-1.0743-17.555 2.0938-3.7331-2.5774-8.6322-2.2581-11.633 1.2832-4.0763 2.8504-8.8198 4.5806-13.68 5.5293 2.8064 6.3325 8.7685 11.534 16.061 10.707 3.9038 0.17716 8.6687-1.0478 11.918-0.125-1.3817 4.3911-8.9267 2.2739-7.4183 7.8223-1.4809 10.135 5.8019 18.791 8.536 28.076 1.0201 5.8396 5.6182 9.3439 9.7455 12.963 0.82369 5.1988 3.6049 1.8402 5.7168 3.4316 1.7227 3.7734 0.81032 8.0989-0.16797 11.945 4.6542 2.8397 12.2 4.6348 15.377-1.2559 3.5012-6.5705 7.8492-13.024 15.164-15.791 9.3042-4.6963 22.743-2.6312 29.072-12.455 2.2567-3.2848 5.3084-6.5193 9.6524-6.4277-1.119-4.5303-3.1699-9.1786 0.15429-13.184 1.9854-5.018 0.51492-10.538 1.1691-15.802 1e-3 -8.7914-9.1654-13.598-16.943-13.922-6.4226-0.94147-13.58 2.2466-19.505-1.795-8.3142-3.93-16.784 3.613-24.227 4.1602-1.8058-5.5314-0.29506-12.222 5.8553-14.253 7.3376-3.7062-2.863-0.79703-4.5448-1.4423zm-33.471 18.877c3.8656 0.24166 7.6626 0.56707 11.09 2.8105 3.0592 2.0657 7.3605-1.1812 8.7566 3.0954 2.8657 3.5209 8.4711 0.21439 12.259-0.60514 2.4494-1.0212-0.74089 3.6779 0.0673 5.0765 2.1516 2.4003 8.1781 0.41343 11.817 2.3884 6.8513 2.1963 10.358 9.7136 17.555 11.422 5.0849-0.14841 2.9364 5.8672 4.9539 6.9692 4.6707-0.48138 10.912-3.2423 14.892-0.0434 2.5186 2.8496-0.041 3.8006-2.4922 5.1953-3.7558 2.7996-5.7642 7.3699-10.927 7.9876-7.7575 3.4966-17.11 4.3815-24.2 8.8486-1.9704 1.6866-4.2885 7.5312-6.9 3.8826-6.688-5.253-17.184-3.3176-21.875-11.438-4.1143-6.8673-8.9746-14.177-9.9531-22.217 3.0833-4.3042 7.9085-7.4192 11.115-11.787-3.139-6.4179-9.9442-9.7064-16.455-11.678z" fill="#535356" stroke="#535356"/> <path d="m226.5 275.03c-15.53 1.9309-30.725 7.7395-42.777 17.877 11.66 2.4202 25.221 4.2616 35.236-3.8301 5.2946-3.3878 8.9501-8.7573 11.186-14.551-1.2148 0.16797-2.4297 0.33594-3.6445 0.50391z" fill="#3e3e3d" stroke="#3e3e3d"/> <path d="m233.76 277.22c-5.5622 3.7898-9.4661 9.5849-15.873 12.143-9.8767 4.9389-14.844 15.121-21.492 23.17-6.1124 4.9962-16.292 6.583-18.709 15.305-6.2574 13.971-18.139 26.774-17.348 43.07 0.53265 7.8494 9.7284 8.3896 15.236 11.381 4.2428 3.4356 9.7236 5.4102 15.1 3.4395 9.1822-2.5357 18.519 1.6775 27.828 1.5938 9.9206 1.4305 19.894-0.65106 28.65-5.4356 16.154-8.8799 31.787-19.099 45.4-31.586 6.1894-6.9099-2.731-3.5827-6.1807-0.78413-14.865 9.8448-29.059 21.032-45.212 28.714-3.036 1.6119-6.4753 1.9825-7.9844-1.668-1.6742-3.2854-3.8547-4.4758-7.0977-2.0957-4.5978 2.7274-9.3604 0.58797-13.908-0.25586-6.2802 0.10205-13.421 5.3691-18.664-0.45703-3.6147-1.4822-2.6914-5.925 1.0156-6.377 9.209-2.6411 16.072-11.803 26.383-10.355 6.7504-0.5636 12.747-4.8936 18.092-8.8008 3.426-3.3394 7.2148-7.3871 5.832-12.662 1.3723-5.4942-4.8544-1.8656-8.0312-2.5234-6.0694 0.0983-12.234-1.56-17.096-5.2852-12.625 11.518-24.952 23.396-37.631 34.803-1.5557 0.96643-6.6533 4.9402-4.3496 0.57618 4.9376-11.363 16.919-17.002 24.57-26.277 9.3771-9.1058 21.891-15.058 29.867-25.506 1.5094-5.016-4.9978-10.059-9.3477-6.8047-4.5224 1.5704-9.2246 5.5582-14.227 3.6113 4.0549-11.202 17.68-19.729 29.131-13.66-1.5899-4.398-1.0687-9.4232 2.2793-12.879-1.9589-1.1102-3.9314-6.7392-6.2344-4.3926z" fill="#545458" stroke="#545458"/> <path d="m411.32 283.44c2.625 2.5149 12.557 5.5964 7.077-0.20113-2.2296-2.5185-13.796-7.085-7.077 0.20113z" fill="#424240" stroke="#424240"/> <path d="m304.38 282.65c-4.3752 1.2511-9.311 1.7937-10.467 6.8027-6.1872 2.4127-12.768 4.8448-17.865 9.4434 1.6408 5.1858 5.633 7.2777 10.648 8.2285 3.6526 2.2306 5.4011 0.99254 4.8745-3.1191-1.2868-5.7984 6.4214-6.4638 10.374-6.6426 2.8186-1.1565 10.969 4.2369 9.259 0.15483-2.0593-4.9878-4.0421-10.077-4.6828-15.475-0.71354 0.20248-1.4271 0.40495-2.1406 0.60742z" fill="#792c18" stroke="#792c18"/> <path d="m419.44 288.06c5.8374 6.3518 5.8871 15.171 4.707 23.15-0.1082 3.1549 1.1425 6.7094-3.1367 7.627 0.55662 4.8775-1.3676 5.1165-5.695 6.2207 0.3645 9.1784-10.374 10.511-17.137 12.131-7.7305 2.3201-16.47 4.164-22.48 9.7045-3.4382 5.154-2.2593 14.234-10.256 15.123-4.7902 2.3485-13.417 0.33172-11.793-6.4238 0.79263-3.2213 0.90203-6.2953-2.7327-7.606-10.5-5.5984-12.381-18.095-16.47-28.132-1.6835-6.6011-8.0296-12.44-4.821-19.669 3.942-7.1241-5.0726-3.8888-9.3474-4.4961-4.605-2.3726-9.3016 4.1122-3.4571 4.9834 3.2327 0.29374 6.3122 1.7674 6.3701 5.5146 4.3931 11.58 8.74 23.054 12.067 34.898 3.2441 6.2678 13.225 9.6439 10.504 17.998 0.34781 8.1672 9.4336 14.013 17.113 11.363 7.9102-1.561 17.852-4.7644 19.439-13.913 0.46208-7.0796 8.1302-8.1992 13.222-10.793 10.977-5.4891 26.088-3.0146 34.665-13.179 4.2604-4.9032 13.489-6.4836 13.285-14.326 1.1578-7.3829-7.0662-10.918-8.5664-17.557-2.9774-6.5491-6.5233-13.377-13.759-15.942-4.7855-1.5009-6.5512-4.7219-1.7214 3.3226z" fill="#3e3e3f" stroke="#3e3e3f"/> <path d="m425.34 291.84c5.1678 7.0592 7.2012 15.965 13.529 22.217 1.8214 3.7039 0.20499 8.5492-3.9441 9.8475-6.4753 3.5915-10.409 10.768-18.121 12.089-9.0458 2.482-18.574 2.9965-26.857 7.8388-4.5558 1.9307-9.8658 3.9709-10.798 9.4654-0.82411 5.5053-4.4846 9.8875-9.9609 11.25-5.9388 2.3267-14.863 4.6376-18.512-2.3906-1.93-4.108 1.052-9.3726-2.6777-13.062-3.8666-4.8307-10.315-8.07-10.662-14.977-3.4007-11.582-7.9289-22.9-12.342-34.072-2.5013-3.1046-6.9745-2.7061-10.301-4.252-0.99804 4.9026-1.6984 9.857-2.3281 14.818 3.8476-0.94736 8.7677-4.2992 9.8984 1.2012 5.1912 9.7107 2.1266 22.309 9.9375 30.902 3.6442 4.6016 10.055 8.2626 8.707 15.084 0.94118 4.6368-1.2956 6.0787-5.1035 2.8477-2.5722-2.2508-10.453-7.8744-6.8098-1.0059 2.1559 3.5302 5.3211 6.4868 8.0012 9.6914-7.0591-0.6233-14.202 0.4343-20.928 2.5996 4.0606-8.5809-2.1512-2.6497-5.7331 0.57997-10.461 7.6662-24.268 9.4712-33.861 18.615-9.0995 7.3446-14.888 17.696-21.416 27.117-2.6528 2.1791-6.0645 3.1459-8.8984 5.0781 3.1734 1.1673 8.5891-0.94618 8.6309 3.8965 1.7704 4.7977 5.7886 8.5323 10.807 9.7246-4.853 11.813-5.6986 24.571-5.3519 37.197-0.53997 4.0962 0.91651 15.139 3.7863 6.038 1.6753-4.1512-0.87442-11.104 5.2063-11.624-2.643 5.4612 5.6316 0.64099 8.75 1.2949 5.9418 3.7793 8.696 11.136 13.773 16.012 4.8518-2.0364 5.592-5.6308 3.7629-10.41-0.0707-2.9108 5.079 1.6373 5.6277 3.5413 2.1123 3.6261-0.37461 9.3843 2.3586 9.1805-1.5599 2.5852-2.8482 5.3178-4.1457 8.0402 6.1698-1.5347 2.0918 3.2864 6.0928 6.6027 3.1563 6.867 10.34 12.192 17.423 13.003 4.3892-4.4018 7.7243 2.0755 11.91 3.6125 5.67 4.8032-1.9738-7.4458 1.8556-6.1652 7.3235 1.5199 14.291-2.106 21.166-4.0059 1.5994 4.244 4.6275 11.041 10.293 8.2617 3.2757-0.98784 6.2348-2.6528 9.4004-3.8633 1.7079 5.577 6.772 9.5431 11.844 12.199 8.2714 1.4917 15.599-7.936 23.762-3.5137 3.4766 0.76167 0.20557 6.1466-0.34571 8.082-1.7778 2.8662-7.7554 11.455-0.95903 7.0793 7.7586-5.7044 15.452-11.88 24.822-14.933 1.7082-20.133 4.0195-40.629 2.2716-60.71-2.1557-7.1068-4.0334 2.7861-3.9869 6.0612 0.57585 1.9381-0.81416 6.2703-3.232 3.9962-4.757-2.3766-1.7732-9.3839-4.6214-12-2.9316-0.0574-5.5052-0.99844-5.2689-4.4164 0.12753-3.7893-2.6001-4.8222-5.9027-5.2013-6.1189-1.1019-2.2667-7.7276-1.25-11.449-5.2257-8.1219-9.649-16.768-15.566-24.436-5.4488 7.1904-2.5059 16.78-6.6211 24.461-2.4542 9.651 1.9379 19.282 6.1406 27.75 7.3024-2.9415 0.52672 4.2219-0.43723 7.0523-4.0895 8.1444-14.604 10.744-17.803 19.661-1.9182 5.4844-7.3051 8.9777-12.012 11.271-2.4883-7.2448 5.6004-10.19 9.2383-14.787 6.1476-6.6218 13.867-12.497 15.904-21.865-8.2778 3.0743-14.342 9.7285-21.801 13.887-5.7491 5.944-14.336 7.4047-20.99 12.016 2.5548 6.2558-5.5602 1.7906-8.7832 2.1328 1.4714 3.496 2.6295 6.5786-2.3125 5.1191 0.58111-4.1354-4.2111-7.1645-6.8789-10.416 0.50301-4.363 2.6834-10.027-3.9829-8.384-3.6688-0.16588-8.9272-1.3634-6.2922 4.1193-0.30857 2.1668 2.8263 9.6899-0.46311 7.7725-10.728-5.139-14.003-17.73-15.277-28.572-6.2081-6.3034-12.373-12.917-20.729-16.299-3.1698-3.3458-1.3508-9.3514-0.66407-13.523 3.2404-11.679 15.436-16.883 24.41-23.535 11.312-6.6776 23.829-10.731 35.811-15.966 9.9229-4.1816 20.644-6.1917 30.802-9.3304 4.8484-2.6305-3.9543-2.6081 4.4764-3.1628 15.238-3.5919 30.837-0.90444 46.085-0.36269 7.3895-1.4986-2.706-3.9486-5.4918-5.3385-3.0925-1.1306-2.0593-2.1654 0.64453-2.6582 7.9144-1.8917 15.554-5.1312 21.07-11.311 6.6835-6.2468 11.418-14.301 18.387-20.266 2.0927 3.5681 4.9761 14.091 5.2842 4.4763 2.0937-11.478 4.9697-25.502-4.1572-34.875-9.5434-10.17-23.253-14.893-33.779-23.904-4.8976-2.0515-8.6798-6.7513-3.5098 2.2598zm-77.945 88.352c3.8595 1.9694 8.1028 3.0773 12.373 3.709-3.7213-0.322-9.3083 1.6967-11.898 0.0274-0.14674-1.2156-0.38651-2.6051-0.47461-3.7363zm-11.672 3.5566c2.4714-4e-3 6.5966 2.2775 6.3223 4.2285-15.517 9.1322-32.637 15.644-46.507 27.443-9.0045 5.7468-16.264 14.842-26.649 18.041 0.98517-10.021 5.6577-20.525 15.474-24.658 10.374-6.5117 21.336-11.927 32.647-16.786 0.72977-3.9359 6.499-6.9144 11.191-7.1582 2.5263-0.24042 4.9987-0.93043 7.5215-1.1113zm86.62 78.189c-2.6996-3.3738 2.3676-3.3351 0 0zm0.66729 9.9632c-0.37731-0.35974 1.3606-0.49022 0 0zm-4.1289 2.3242c-0.68568 4.0507-0.73931 8.8786-1.9883 12.375-1.0472-3.9853-1.6046-10.278 2.0508-12.938zm3.9766 2.9473c1.9452 2.9391-3.6963 1.2561 0 0zm-9.5625 11.613c1.6929 9.7255-4.3894 18.885-10.014 26.166-3.5161 1.5827-8.8877 4.9513-11.361 0.34376-5.0633-2.3865 0.55458-6.0423 2.1905-8.7183 4.2766-5.9338 11.614-8.8095 15.905-14.536 0.92955-1.5234 1.4517-6.9915 3.2793-3.2559z" fill="#363636" stroke="#363636"/> <path d="m300.79 293.38c-5.4945 0.29336-13.937 2.3973-13.232 9.4883-1.1159 4.0973 1.3567 5.455 4.8984 6.7129 8.3064 4.5603 15.514 10.658 22.852 16.646 0.47752-10.187 1.2356-20.439 3.582-30.389-6.2098 0.37182-11.899-2.8654-18.1-2.459z" fill="#a63010" stroke="#a63010"/> <path d="m320.67 303.94c-4.0497 1.3248-9.6729 1.3815-8.291 7.2324-1.1219 7.1497-1.4413 14.604 2.5527 20.998 4.5984 12.468 8.7993 27.707 22.064 33.582 2.7596 0.77869 9.112 3.4634 7.6523-1.6328 0.55293-6.7672 1.1495-14.782-5.0477-19.288-6.9814-5.6417-9.8594-14.421-10.054-23.13-1.1824-6.509-3.7096-12.673-7.3574-18.213l-0.95864 0.28464z" fill="#2c2c2a" stroke="#2c2c2a"/> <path d="m170.61 305.77c-2.8947 4.8678-5.6124 9.8381-8.4688 14.729 3.574 5.0136 4.9102 12.428-0.41324 16.803-8.7113 12.023-19.693 24.874-19.591 40.556 0.32788 7.7702 9.9807 8.9223 14.664 13.343 2e-3 3.8192-1.5932 5.4752 4.8984 3.9932 8.703 0.62168 17.372 1e-3 25.75-2.5938 4.876-0.7108 12.557-3.4841 14.826 2.8848 1.4365 4.9697 7.2998 2.8824 11.209 4.627 5.4237 1.9698 11.232 2.8509 16.457-0.1543 15.616-7.303 26.782-21.482 42.571-28.612 7.8816-4.8046 16.248-8.835 25.577-9.6437 3.5682-0.76511 8.2861-1.2458 7.3588-5.8587 0.60637-3.6227 0.85435-7.911-1.8744-10.79 4.0649-6.1448 14.019-9.395 13.308-18.183 1.6256-8.7506-3.4524 0.14345-6.2118 2.6656-5.8334 7.0203-15.012 12.018-16.789 21.68-2.3012 5.0045-9.0445 4.7035-13.096 7.8086-15.912 8.4645-29.472 20.336-45.145 29.078-4.8969 2.2487-11.333 4.3174-16.262 2.9961 1.936-7.6434-2.6703-4.368-6.9141-1.6016 0.77132-4.9649-4.578 0.39457-7.3008-1.7969-4.1043-1.5694-7.046-6.1736-11.759-3.2352-7.4779 1.2831-15.829 5.3517-22.627-0.0849-4.8551-2.6963-9.8317-5.5563-15.42-6.34-1.6253-7.9134-3.1425-16.915 2.541-23.658 5.59-9.2576 14.825-16.346 19.547-25.877-0.70255-7.8094-5.7119-15.129-3.1195-23.125 1.6978-7.0354-1.5928-0.86843-3.7164 0.39083z" fill="#444546" stroke="#444546"/> <path d="m333.77 307.35c-2.0932 9.3414 5.2151 17.298 9.8106 24.652 4.5082 6.3898 12.602 8.0239 19.355 10.979 7.8255 2.4937 14.439-4.2063 21.871-5.3848 6.6532-0.61016 6.0731-2.8371 5.4297-6.9961 3.3531-3.4377 5.143-8.4648 3.7891-13.191-8.1452 1.0591-15.139-5.1833-23.352-4.0312-7.9742-1.2019-16.512-5.7333-24.396-2.2441-3.4405-2.907-7.6398-4.7874-12.012-5.7891-0.16536 0.66862-0.33072 1.3372-0.49609 2.0059z" fill="#666366" stroke="#666366"/> <path d="m162.81 319.36c-3.9385 6.5226-10.66 10.879-13.953 17.756 4.2029-2.0491 6.3715-1.9645 5.1218 2.6771-0.70488 8.6696-8.0506 14.636-11.443 22.291-2.9974 6.616-8.5345 12.766-8.7707 20.26 0.63891 7.1924 8.3881 9.5797 13.439 12.895 3.1605 3.9762 7.218 7.7218 12.715 7.0371 8.4642-1.1794 16.839-2.5266 25.381-2.5762 3.232 0.20252 6.152-2.432 9.2754-1.5117-7.3589 3.3695-16.226 6.5218-18.87 15.12-2.9864 5.7537-6.2399 11.83 1.6814 4.9985 13.596-9.6113 31.005-7.9769 46.257-12.49 21.496-9.0554 36.468-29.304 58.822-36.521 9.9508-2.8717 23.241-3.1138 29.025-13.154 4.2488-7.6532 3.5491-16.928 7.4688-24.703-1.4876-3.7372-4.3812-5.2042-7.4882-7.9286-0.48756 4.5272 2.5844 7.6957-2.2267 10.651-4.0654 3.382-9.0728 6.5146-10.424 12.016 3.988 2.0964 3.1417 7.1328 2.3867 10.633-8.9958 2.0498-18.468 3.0988-26.205 8.6566-14.366 6.7022-26.394 17.055-38.928 26.525-5.9372 3.9328-13.173 8.0572-20.281 4.5952-3.0527-0.92052-6.3927-1.3908-9.4089-1.937-1.7963-4.6144-6.1712-8.2176-11.357-7.1445-10.43 0.68647-20.33 5.3683-30.949 3.6484-3.1716-1.3672-7.6127-5.4623-11.781-7.5933-3.8424-1.3917-7.536-4.474-6.0898-8.895 2.1257-15.701 13.895-27.392 22.248-40.045 2.6332-6.0884-0.74433-12.604-3.7832-17.832-0.6211 0.85742-1.2422 1.7148-1.8633 2.5723z" fill="#3d3e3e" stroke="#3d3e3e"/> <path d="m289.4 322.52c-1.5066 3.9657-1.707-0.18477-4.0879 0.48633-9.5553 3.7804-19.866 6.0738-28.961 11.158-8.5634 5.5999-14.179 14.553-21.139 21.886-3.7929 3.0798-2.389 7.9517-0.95634 11.739-1.2113 4.3798-2.5849 11.302 1.7773 14.268 9.6387 1.0558 16.042-7.5952 22.74-12.9 6.7775-3.7257 14.558-6.8537 19.207-13.158 13.647-3.9919 23.715-15.167 32.314-25.805 0.46379-3.405-4.0252-5.241-6.7852-5.6758-2.1802 0.68585-3.9333 2.3827-5.7578 0.084-2.5057-1.4914-5.4514-2.1383-8.3516-2.082z" fill="#6b6669" stroke="#6b6669"/> <path d="m288.82 323.27c-7.9836 0.83699-14.981 5.4797-22.765 7.2876-9.1892 2.6179-16.401 9.1021-22.041 16.58-3.3546 4.6853-9.3341 8.2821-10.623 14.137 0.23937 3.3913 2.6974 6.454 0.78516 9.8516-0.60439 3.6675-0.89122 11.019 4.1309 10.264 11.187-0.7901 16.252-12.906 26.326-16.225 5.0444-2.1081 9.603-5.6419 12.868-9.7747 14.188-3.9077 23.855-15.915 33.27-26.387-3.6195-2.0001-7.1447-5.7847-10.955-1.9863-2.8836-2.813-7.0412-3.9514-10.994-3.7461z" fill="#6b6669" stroke="#6b6669"/> <path d="m314.96 330.57c-4.7136 9.0377-2.2073 21.824-11.34 28.205-11.275 6.1048-25.229 4.9844-35.83 12.736-16.776 9.7508-30.145 25.086-48.709 31.594-12.735 2.2866-26.132 2.7486-37.988 8.4512 5.0426-7.4496 15.236-8.3949 22.164-13.588-4.552-2.4276-9.9428-5.8844-15.072-2.834-9.044 1.2441-18.398 0.99781-27.253 3.07-7.4295 1.689-9.8089-7.4181-16.191-9.1325-5.171-1.5732-9.5648-7.6695-5.2646-12.628 4.6668-10.488 11.463-19.836 17.05-29.76 2.2077-6.0094 1.496-12.507 2.2324-18.738-15.484 9.0724-28.654 21.744-40.586 34.99-5.6257 6.4022-9.2516 13.901-11.118 22.206-3.1679 9.8373-1.8345 20.423-3.5442 30.53 2.4963-1.5617 4.5958-11.069 7.584-6.3418 3.7648 6.398 5.4596 16.353 14.299 17.641 5.4292 0.50661 10.749 2.2869 16.201 1.1543 5.136 1.3276 10.32 3.4707 15.836 2.5723 6.9587 0.23462 16.132-3.7686 21.49 1.9883-4.9866 4.2363-12.683 3.9191-18.665 6.3196-5.2045 1.6227-10.972 1.9589-15.265 5.6472 11.07 2.4179 22.549-0.95463 33.678-2.1992 19.784-2.3227 39.844-4.5135 58.393-12.303 6.4998-2.4279 12.923-5.0537 19.373-7.6094-5.0743-1.8958-12.181-5.4947-9.7188-12.201 2.751-8.3078 10.339-13.692 15.342-20.617 13.005-13.733 32.141-20.658 50.854-20.664 2.7468 7.4992 4.3758 0.14619 6.1615-3.7612 2.0916-4.9703 3.3515-10.27 3.7389-15.647 4.2572 3.5963 0.8044-6.6095-0.48243-9.0156-1.7337-4.821-3.512-9.625-5.3984-14.389-0.6569 1.4414-1.3138 2.8828-1.9707 4.3242z" fill="#383736" stroke="#383736"/> <path d="m319.43 344.32c-0.621 5.5289-1.7147 11.048-0.94531 16.619 2.7981-1.8013 3.322-9.8162 7.2129-5.4426 7.6303 6.0607 4.24 0.54496 1.1347-4.6726-2.1293-4.3086-4.3481-8.5709-6.6094-12.812-0.26432 2.1029-0.52865 4.2057-0.79297 6.3086z" fill="#c88d1b" stroke="#c88d1b"/> <path d="m320.4 350.17c-3.8805 7.0626-7.1659 17.612 0.14648 23.699 4.1607 0.97011 9.4286-1.4174 14.123-0.68555 4.632 0.0965 9.0734 1.5403 13.561 2.5234-7.7841-7.8788-14.506-16.936-22.234-24.723-1.9843-0.57503-4.9863-4.8672-5.5957-0.81446z" fill="#ecc21f" stroke="#ecc21f"/> <path d="m468.14 358.8c-5.7929-0.41282-7.6507 7.1834-11.492 10.636-4.7744 7.4816-11.527 13.771-15.215 21.889-1.0862 7.3735 7.6661 11.264 11.664 16.254 1.5464 3.4831 4.8712 9.3747 7.4141 4.1563 0.66112-7.9728 0.2163-16.899 6.6714-22.853 5.1578-5.6699 8.333-13.057 13.93-18.246 3.4188-1.1988 6.1916-7.9398 2.498-9.3652-4.8341-2.1914-10.237-2.5314-15.471-2.4707z" fill="#404141" stroke="#404141"/> <path d="m316.44 361.1c-2.2248 5.7531-4.9611 11.29-7.2461 17.02 5.5861-1.6093 11.13-3.3704 16.789-4.7148-5.7559-3.1654-6.1972-9.4953-6.1796-15.258 0.54071-4.2045-2.7896 3.0469-3.3634 2.9537z" fill="#c18e1d" stroke="#c18e1d"/> <path d="m481.35 362.9c-0.12093 4.7205-6.0297 5.6836-7.5176 10.014-5.6811 9.9941-16.921 17.886-16.688 30.415 0.64991 5.3023-2.0177-0.23971-3.9277-1.3234-2.6334-2.96-8.5133-5.7302-7.6616-10.228 2.8981-6.0684 8.8749-10.23 10.441-17.043-5.1744 3.6285-11.007 5.7061-17.348 5.8984-11.86 3.1478 5.726 2.5169 1.1253 6.2662-1.3773 3.2206-9.7686 7.3902-3.9535 9.6353 8.528 4.5065 11.133 14.007 15.272 21.995-2.4694 3.6654-8.0063 9.4878 0.0879 5.9766-4.594 5.5976-4.605 7.6635 3.3611 3.911 3.2702-1.8044 5.2101 7.4658 7.4924 1.5597 7.869-10.245 1.2352-23.791 5.5664-34.994 3.6511-3.087 5.4095-7.8392 8.2344-11.514 2.5737-1.9335 5.8281-2.9307 8.041-5.3516-1.5272 6.2021 6.1469-5.288 7.5441-1.929 4.6736 6.5729 3.5015 14.813 5.1976 22.148 1.3699 6.6853 3.7737-3.1941 3.8442-5.9186 1.0178-6.4607 2.9563-14.067-2.332-19.242-4.285-5.5516-7.7192-7.4914-13.659-11.062-0.20117 0.92123-2.9192-0.13505-3.1203 0.78617z" fill="#373534" stroke="#373534"/> <path d="m309.83 365.11c-22.308 0.66854-44.414 11.379-57.346 29.812-6.0004 5.9138-13.046 14.864-8.8027 23.674 2.7094 4.5461 8.8934 7.6866 13.168 3.3633 6.0991-5.8666 8.9034-14.427 14.918-20.484 8.1907-10.303 20.273-16.119 32.334-20.605 5.3848-2.6999 11.694-5.7304 13.451-12.008-1.3648-4.1006-4.023-4.1492-7.7227-3.752z" fill="#2b2b2a" stroke="#2b2b2a"/> <path d="m335.24 379.75c-6.3745 1.2479-14.023 0.86127-18.842 5.9688-5.4004-3.8739-1.0788 5.9446-7.3496 5.4453-12.563 6.065-25.689 12.091-36.248 21.229-5.3015 6.9507-7.9162 15.686-8.1563 24.367 9.4678 3.0853 16.876-6.5107 23.916-11.027 13.655-10.94 28.15-20.957 44.253-28.041 5.3183-2.6805 10.52-5.6084 15.426-8.9913-2.7142-4.6582-7.214-9.158-13-8.9512z" fill="#2b2b2a" stroke="#2b2b2a"/> <path d="m486.12 366.73c-2.6596 5.0306-5.3214 10.529-11.037 12.42-5.4282 2.8639-5.8677 9.8548-10.711 13.449-5.5244 10.439 1.0491 23.282-4.625 33.494-6.8538-2.8744 6.4226-10.655-3.8539-6.8043-2.1826-4.2105-5.3376-11.393-8.1187-16.752-2.7533-4.7825-7.5297-7.8435-11.979-10.865-3.6695 4.0638-7.1385 8.3008-10.641 12.508-8.179-4.4837-1.3893 6.575-1.1839 10.796 5.9928 21.845 13.167 44.038 11.442 67.062-0.41711 12.547-1.1515 25.506-2.7039 37.813-7.8292 1.559-0.32736 3.6192 1.4219 7.5273 1.538 3.6211 1.6575 14.378 4.2754 5.3555 3.2039 2.2705 2.715 4.6076-0.42131 6.8392-4.4588 4.3024 5.2422 0.26339 8.2826-0.0873 4.7239-2.6493 5.547 5.1537 8.5542 7.2697 4.5036 8.4095-1.0279-9.5906 2.5102-5.051 1.1918 3.3808 6.1683 6.0802 8.2168 1.8418 2.8484-3.0464-0.11601-8.1757 0.47461-10.973 7.6922-0.77962 10.341-9.7591 16.652-13.15 9.2784-6.1722 7.7013-19.063 14.623-27.004 9.4116-15.693 5.6059-34.913 4.8789-52.121-3.6036-18.396-0.98948-37.093-3.1973-55.613-0.86031-5.6582-4.5537-10.309-6.2344-15.713-7.1726 8.7681 0.61208-9.725-5.579-0.58041l-0.45762-2.3755z" fill="#2a2a28" stroke="#2a2a28"/> <path d="m342.82 376.55c1.116 3.8756 0.21815 10.198 2.7159 12.372 8.4097-0.67626 16.788-1.1077 25.206-1.8313-2.0768-3.6941-3.819-7.8305-8.7413-6.9246-7.2704-0.64089-14.244-3.4545-19.823-8.1886 0.2142 1.5241 0.42839 3.0482 0.64258 4.5723z" fill="#d2b123" stroke="#d2b123"/> <path d="m461 339.17c-12.555 9.3333-18.962 26.648-35.067 30.895-4.774 1.3462-9.5407 2.9344-13.681 5.7476 5.2319 6.174 13.143 9.0829 21.15 8.4258 6.7309 0.35723 14.823 0.6615 20.273-3.9922 4.2496-6.7318 10.503-12.778 14.268-19.611-0.98342-7.282 0.3287-15.253-4.3638-21.646-0.46295-2.409-1.4487-0.44737-2.5796 0.18119z" fill="#2d2b2a" stroke="#2d2b2a"/> <path d="m398.3 377.97c-6.8514 0.0531-13.715 0.75664-20.375 2.4023-1.3658 4.5729-7.9976 1.8131-11.778 3.062-7.1286-0.0784-7.6148 4.6436-0.22019 4.264 12.952 0.0856 26.619-0.23199 38.458 6.1324 7.1104 3.2153 13.127 8.4876 18.546 13.848 5.3361 3.3344 7.2467-4.8925 10.824-7.5652 5.2401-6.1308 10.627-12.153 15.358-18.697-16.954-0.88779-33.836-3.243-50.812-3.4473z" fill="#973518" stroke="#973518"/> <path d="m423.93 380.19c3.5931 3.3486 13.834 3.5699 14.716 0.44246-4.0911-2.8311-10.444-2.8845-14.716-0.44246z" fill="#4b3028" stroke="#4b3028"/> <path d="m379.24 380.1c-5.7446 0.32457-11.526 0.45446-17.33 0.39063 2.2247 5.0222 5.1214 8.734 11.066 6.4863 5.2281 2.1438 10.45-4.0337 8.4696-7.0438-0.73533 0.0556-1.4706 0.1112-2.206 0.16679z" fill="#bd6516" stroke="#bd6516"/> <path d="m372.66 380.37c-2.9111-0.54572-13.135 1.3704-6.9582 3.5243 5.3954 0.75449 11.997 1.4522 16.818-1.9013-3.1123-2.0506-6.2831-1.9453-9.8594-1.623z" fill="#7f4f25" stroke="#7f4f25"/> <path d="m375.84 383.85c-21.719 3.06-41.738 12.85-61.721 21.371-10.14 5.6012-20.213 12.023-28.211 20.443-5.163 7.0769-7.4716 17.379-4.0254 25.457 5.1899 4.1879 12.001 6.0166 16.17 11.607 4.9357 3.7894 8.5921 8.8747 9.123 15.189 1.4828 5.8402 4.6424 11.105 8.4023 15.758 9.1369-3.7923 8.1743-16.108 16.49-20.686 1.2501 4.4264 2.9308 9.8348 8.5137 9.3828 6.7203 0.59525 13.031-3.6047 16.514-9.1309-0.76343 6.8449 2.8211 2.8279 5.5801 6e-3 4.7844-4.9987 9.0594-11.278 16.129-13.176-1.5134-2.9321 4.5102-2.024 5.8574-4.877 5.8671-7.3829 4.7981-17.64 9.6348-25.572 2.4914-5.4691 1.5084-14.437 9.1152-15.49 3.5795-1.8742 2.4036 4.9026 3.6973 6.8476 1.9961 10.719 5.4949 22.967 16.146 28.127 4.3475-9.447 10.755-20.301 5.7711-30.797-2.0488-6.8428-2.4992-14.754-9.0777-18.937-11.994-10.578-28.166-16.104-44.109-15.523zm-0.40625 8.8496c6.3392 0.71893 16.035-1.0378 18.352 6.8477 2.438 4.3039-3.5204 0.88281-2.5976 5.8926 0.14154 7.7151-4.7732 14.063-5.1797 21.707 0.23388 3.4602-3.1276 6.6915-5.541 3.2285-0.25532-3.5768 2.1556-8.5686 0.32982-10.866-9.6126-2.8121-7.7392 12.203-15.728 13.141-7.6843-1.9202-16.665-7.7292-24.002-1.6504-5.9293 4.2747-11.429 9.3691-16.693 14.291-4.5497 7.466-5.5396 16.426-8.3301 24.564-0.36454 2.551-0.13547 5.1327-0.082 7.6934-3.9318-5.981-7.9589-12.785-5.3766-20.177 0.41993-4.0663 4.9504-10.678-0.73281-13.02-0.65029-3.8268 0.64935-5.876-5.0977-2.2676-2.4184-4.7514-4.6996 0.11444-7.1328 2.1758-2.3861 3.1603-2.7862 1.4136-2.5165-1.7659-1.5208-8.2991 2.4775-17.189 10.571-20.445 12.699-5.3022 22.389-16.286 36.39-18.601 8.6846-1.8091 16.677-5.5933 24.495-9.5653 2.8608-0.91293 5.8824-1.1994 8.873-1.1836z" fill="#404041" stroke="#404041"/> <path d="m374.57 388.71c-10.85-0.70626-18.896 7.9082-29.191 9.6706-10.364 2.3301-20.388 6.1706-28.714 12.927-8.4485 6.34-21.624 8.662-24.82 20.227-1.9504 7.394 0.30224 15.106-1.1524 22.578 4.3074-2.2672 8.2405-5.1959 11.527-8.793 1.2976 2.4144 4.7344 1.2828 6.5039 3.1641-2.6644 8.6373-5.1776 19.116 1.2998 26.812 2.868 4.5701 5.1959 9.4428 7.2022 14.446 3.8637-6.4373 2.0368-13.819 3.0742-20.75 3.6733-7.7336 2.742-17.804 9.7383-23.58 6.1694-4.3585 10.989-11.935 18.805-13.18 6.5808-0.0136 12.729 5.8586 19.078 3.8418 4.8774-2.3102 7.4003-7.3415 9.2168-12.121-0.70396 4.2749-1.968 10.186 3.5469 11.387 3.9089 1.6693 7.873-0.28143 8.5098-4.541 1.2835-5.6526 2.1991-11.347 4.7539-16.531 0.67235-2.5182 0.76242-5.137 1.1191-7.707 4.8325 2.6928 4.0183-1.6963 3.3867-5.0703-0.87178-7.219-7.2894-13.202-14.852-12.227-2.9994-0.32832-6.0131-0.59205-9.0332-0.55273zm-0.48047 10.27c4.7027 0.17033 10.594 0.35634 14.615 2.1133-0.47485 4.744-1.3332 11.236-5.6582 13.902-7.8433 0.28624-14.112 5.2898-21.238 7.7383-9.8481 1.4611-20.143 3.1604-28.078 9.6484-6.1161 3.8026-10.608 9.7374-13.814 16.096-5.7176-2.6414-3.2819-10.126-2.2695-15.119-2.8756-1.9427-6.6494-4.339-3.6367-7.9785 7.4566-11.366 20.095-17.841 33.061-20.805 8.8605-2.3837 17.601-6.0525 27.02-5.5957z" fill="#48494b" stroke="#48494b"/> <path d="m372.89 394.98c-12.421 0.0332-23.92 5.2884-35.725 8.4395-11.282 3.7084-21.765 11.253-27.494 21.77-1.8833 3.9068-0.69131 7.9006 3.4531 9.6855-0.60086 4.7068-2.0293 10.991 1.18 14.501 3.2488 1.6983 7.7399 8.1234 8.8571 1.5346 5.9326-13.018 19.317-21.756 33.398-23.195 8.2647-0.0487 14.608-5.733 22.19-7.9103 4.5497-0.18935 9.6135-1.7386 10.936-6.6699 2.4924-4.7415 3.3538-10.205 2.9434-15.516-6.4225-1.7667-13.068-2.7559-19.738-2.6387zm0.0371 9.0606c4.3662-0.56242 8.5342 1.5118 8.4819 6.4044 0.39675 3.1892-6.2131 2.8727-8.7635 4.6345-11.415 3.7752-23.254 11.449-35.55 7.0529-5.7594-0.73962-11.723 4.262-11.18 10.086-0.56849-2.8934-2.2399-5.9662-4.5508-7.4648 6.9249-10.044 18.249-15.819 30.084-17.662 7.0026-2.1263 14.178-3.0205 21.478-3.0514z" fill="#545355" stroke="#545355"/> <path d="m371.96 400.06c-11.827 0.0335-23.395 3.2567-34.568 6.7988-9.7747 4.0613-17.441 11.948-22.898 20.859 4.558-1.0228 7.4857 2.4063 7.8613 6.5723 0.0849 4.9462 3.4141 2.8068 6.1523 1.0469 3.6132-1.2936-0.34693-7.0882 4.459-8.4492 4.9054-1.9994 9.9905 1.9897 15.159 0.41821 13.545-2.1061 25.585-9.3233 38.741-12.951-1.95-5.202-2.126-12.991-8.9434-13.807-1.9496-0.46584-3.9666-0.54737-5.9629-0.48829z" fill="#5e5b5f" stroke="#5e5b5f"/> <path d="m107.34 403.54c-5.2752 6.8269-7.7354 15.486-10.428 23.613 5.7075 10.782 14.326 23.112 27.752 23.604 11.061-0.0862 21.293-4.8639 32.09-6.6914 8.014-2.9257 17.437-3.0066 24.572-7.9356 3.7374-3.3339 0.28806-8.3412-3.7598-9.3555-10.798-3.6692-22.751 3.3575-33.217-2.3242-4.7859-0.91606-9.7618 0.88472-14.357-1.0684-6.8817 0.88074-11.239-5.2026-12.884-11.145-1.5663-4.2578-4.4232-8.1832-8.6925-10.037l-0.62622 0.77964z" fill="#2e2d2b" stroke="#2e2d2b"/> <path d="m405.84 409.14c-5.1851 1.4735-11.642 3.1888-12.48 9.4961-1.9077 9.1621-7.0903 17.175-8.2774 26.543-0.91429 5.1598-4.309 10.104-10.152 9.6738-4.3116-0.37869 0.53521 3.7753-3.7109 4.3848-4.1287 2.7248-7.184 6.7013-10.514 10.285 0.61007-5.1422-6.5338-1.5071-7.1016 1.7598-3.0939 4.9721-10.136 9.1486-15.607 6.1406-1.5423-3.4765-2.5058-7.1753-3.9941-10.676-5.9447 3.4992-11.334 8.2533-13.361 15.086-1.051 2.2589-2.2218 4.8862-4.1816 6.3594-5.5808-6.2016-4.824-15.173-9.2031-21.879-4.3489-5.7881-6.3947-6.2001-4.2942 1.5259 1.3671 12.415 6.7374 26.056 19.21 30.99 4.8257 3.2733 7.0596 2.6108 5.4093-3.451-0.28398-3.0666-0.66682-6.1238-1.1319-9.1682 5.5076-0.44106-0.39004 8.4183 6.0996 10.143 5.5407 1.441-0.4758 10.128 5.6208 8.7294 3.8468 0.0458 7.5369 0.36575 11.381 0.7862-3.6996-5.5131-0.1759-5.3092 4.67-4.0118 4.0424 0.59832-2.1687-7.3726 3.5038-7.3847 6.4179-2.7094 12.899-5.7868 17.971-10.57 1.8216-0.58995 7.1917-4.9574 3.4043-1.5801-4.0387 5.5405-10.459 9.0256-14.174 14.709-1.9188 4.5774 0.058 9.5955 0.0645 14.312 7.6556-4.4702 16.719-8.5625 19.717-17.701 4.3329-8.0724 14.786-10.682 17.926-19.746 2.3983-4.3974 4.763-8.8133 7.2773-13.146-3.9341-0.0143-10.037 3.9421-10.697-2.1914-3.7601-7.6643-4.7485-16.67-0.84961-24.459 0.92727-3.8432 0.5969-7.8574 1.4648-11.709 3.6272 5.6141 7.2059 11.528 10.381 17.262-2.2627 4.4156-3.1179 11.529 2.5137 13.736 2.0886 1.364 6.0059 0.31496 5.3828 4.0274 0.32408 3.5148 2.674 6.0614 6.2891 6.0781-0.46559 5.4883 2.4787 12.484 8.5449 13.059 4.848 0.18245 6.3177-5.2436 6.0703-9.1582 0.77878-9.8994-2.9373-19.589-4.6124-29.284-1.5783-6.2782-2.8407-12.73-6.0654-18.423-1.5184 7.9616-2.5668 16.666-6.8242 23.496-10.248-8.5694-9.0916-23.254-13.742-34.75-0.64193 0.23567-1.2839 0.47135-1.9258 0.70703z" fill="#3a3b3c" stroke="#3a3b3c"/> <path d="m252.25 420.18c-17.433 6.5165-34.847 13.717-53.503 15.823-8.487 1.1109 4.2804 2.3665 6.3405 5.6476 2.6831 3.3629-0.63906 7.2927-4.3892 7.4443-8.6448 2.0327-1.7463 3.1643 3.2544 3.7901 4.1866 0.0895 8.5244 3.7002 11.993 3.1001 3.7332-4.4728 8.4968-8.3973 14.744-7.7212 5.1003-0.46597 15.37 0.38598 5.6237-3.7772-1.9535-0.9251-4.3424-1.6014-2.5788-4.3009 3.4207-8.3021 11.758-13.201 20.598-13.975 5.964 1.3596 3.7873-7.1133-0.55274-6.0254-0.50975-5e-3 -1.0194-0.0239-1.5293-6e-3z" fill="#ad360d" stroke="#ad360d"/> <path d="m255.3 421.88c-7.5951 1.3594-15.782 3.0934-20.656 9.6641-3.1654 3.5771-7.5702 9.7063-4.168 14.309 4.0764 2.589 8.8457 4.0029 13.033 6.4492-1.2657-3.9501-6.5223-8.2024-2.4102-12.236 3.9408-6.446 11.151-10.484 18.627-11.062-1.6274-1.8797-1.1518-8.7032-4.4258-7.123z" fill="#bf4e0d" stroke="#bf4e0d"/> <path d="m256.68 425.45c-9.6941 1.495-19.485 8.827-21.311 18.75 1.2149 6.947 9.4132 8.8958 13.133 14.365 6.5152 6.3347 4.1715-1.2228 1.5117-5.3965-1.5063-3.6021-7.5559-5.7996-4.4609-10.291 1.6716-5.7645 7.9718-13.467 14.336-8.8935 6.8912 4.3689 3.8384-0.45027 0.87927-4.3877-1.4404-1.1685-1.848-5.1574-4.0879-4.1465z" fill="#cc7213" stroke="#cc7213"/> <path d="m255.42 428.52c-8.6714 0.74892-13.804 10.22-14.762 18.018 0.88715 4.9142 6.4905 7.0944 7.9902 11.826 1.9651-7.2576 2.3462-15.714 6.1309-22.131 3.566-1.4114 7.5192-1.5415 11.125-2.9043-3.2522-1.9863-6.3981-4.9626-10.484-4.8086z" fill="#dd9317" stroke="#dd9317"/> <path d="m262.37 455.1c-1.0496 7.092-3.2243 14.765 1.4492 21.094 2.4257-7.1064 2.4607-15.201 1.8913-22.508-1.0445-5.251-1.4694-0.49462-3.3406 1.4144z" fill="#7f6b2b" stroke="#7f6b2b"/> <path d="m260.54 430.63c-4.5921 0.77119-10.666 1.7509-11.172 7.4922-1.4202 5.2334-3.473 10.825-3.4023 16.055 1.5737 5.6478 9.5571-3.48 10.793 3.2441 1.9001 4.8346 3.4036 9.8201 5.5254 14.574 1.7646-11.343 2.769-22.628 6.9726-33.32-2.6363-2.8905-4.266-7.9544-8.7168-8.0449z" fill="#eec11f" stroke="#eec11f"/> <path d="m261.82 435.21c1.9082 2.2295 4.7122 8.0008 6.2698 7.2204 1.2768-4.3625 4.6123-9.7806-2.3577-9.6539-5.1397-1.2373-10.651-6.0276-3.9121 2.4336z" fill="#a18b23" stroke="#a18b23"/> <path d="m201.69 435.43c-5.6781 1.0422-12.388 0.0752-15.652 5.7815-1.732 2.5334-7.2381 6.4669-6.1623 8.1413 7.8571 1.3479 16.055 3.3386 23.948 2.8936 7.4688-1.2804 8.2209-12.328 1.7109-15.424-1.1712-0.64465-2.4937-1.4203-3.8438-1.3926z" fill="#c36412" stroke="#c36412"/> <path d="m190.71 436.89c-8.9992 1.0902-18.288 1.5939-26.441 5.9922 2.0301 3.5268 1.1538 12.061 7.0352 9.0644 6.6304-1.3842 13.966-0.28698 20.434-2.9863-8.227-1.2086-2.7187-5.1767 0.6417-8.6848 4.1883-4.319 4.9726-4.4165-1.669-3.3855z" fill="#a7340e" stroke="#a7340e"/> <path d="m170.75 439.62c-3.7445 1.5333-12.546-1.1045-11.166 4.623 0.505 3.3363 1.1428 8.6752 3.9627 9.7264 2.2348-1.6468 9.1168-0.40834 7.1369-4.1776-2.628-3.8598-0.81175-5.7908 3.2246-6.4473 9.6854-4.0022 1.7273-4.4338-3.1582-3.7246z" fill="#6e2916" stroke="#6e2916"/> <path d="m108.61 442.48c-2.6618 13.134-0.61904 26.537-0.18554 39.787 8.5548-9.1845 15.226-20.334 24.914-28.338 4.207-1.3461 8.6295 1.6352 12.956 1.833 6.8139 2.6743 13.531-0.22714 19.881-2.6292-1.3552-3.4916-3.0298-8.1423-2.827-12.45-10.478 0.29285-20.812 2.105-30.719 5.2383-8.5832 2.7398-17.53-0.75974-23.539-7.0215-0.16016 1.1934-0.32031 2.3867-0.48047 3.5801z" fill="#45271e" stroke="#45271e"/> <path d="m250.31 462.18c1.6109 7.39 0.80801 15.835 4.4414 22.475 4.0479 3.1526 8.017 6.3395 8.3106-0.5918 2.1832-5.6569 0.79867-11.841 1.127-17.738-2.3758 2.3571-6.1772 3.0335-7.3926-0.69531-1.744-3.7058-4.287-6.8813-7.0488-9.8809 0.1875 2.1439 0.375 4.2878 0.5625 6.4316z" fill="#a16723" stroke="#a16723"/> <path d="m254.54 450.75c-3.2237 0.0531-6.1488 1.7156-9.3516 1.9883 4.2489 6.0832 5.9499 14.32 11.912 19.039 3.2339 1.8964 8.9312-0.34799 6.8807-4.6204-1.5404-5.4555-2.4851-12.485-7.2206-16.026-0.71097-0.2525-1.4665-0.37875-2.2207-0.38086z" fill="#d4911b" stroke="#d4911b"/> <path d="m498.62 445c0.58742 16.3 3.7866 35-7.0996 48.898-4.8317 7.706-4.091 18.842-12.973 23.697-5.1056 2.8127-7.1515 10.361-13.301 10.947-7.0567-4.4302-4.2422 1.8118-3.1186 6.8224 0.15078 1.6578 1.5626 5.4473-0.26032 5.8886-1.8071-4.2521-5.6405-5.4011-10.062-5.8047-2.3091-2.3891-7.1772 2.054-8.5967-3.211-1.9864-2.5563-4.3348-4.792-6.6689-7.0233-2.6482 7.0245-0.95731 16.125-8.0769 20.823-3.8522 4.8436-10.222 6.7694-16.042 4.2976-2.8489-0.77269-7.0588-0.87272-9.127-1.793 5.7992-8.3431 16.884-15.619 15.092-27.141-0.81493-3.1555-5.9102-3.2076-8.9648-4.2754-7.0704-1.0017-13.174 6.1813-20.01 4.3594-4.6886-3.1059-8.3489-7.1566-9.6211-12.787-5.2766 1.0157-9.9128 5.1792-15.01 5.0606-3.273-2.5275-2.6518-10.968-8.0527-8.3457-8.1168 2.5371-18.446 7.5597-25.711 0.40207-5.132-4.6586 3.5664 10.842-2.7171 4.1936-2.9733-2.0081-6.458 4.0873-9.7676 0.35546-5.651-2.0272-8.346-7.3865-11.252-12.135 6.0301-5.2285 3.5019-6.0892-1.1348-6.6113 1.8161-3.1462 3.6705-6.2701 5.457-9.4336-2.4303 0.0411-6.2766 2.244-5.6856-1.6562-1.2866-6.8289-8.3924-11.905-15.301-10.238-0.21942 2.1189 3.3484 12.824 0.16797 8.1484-4.148-4.3534-7.0081-13.071-14.26-12.584-5.3284 2.3133 2.7019-6.8958-3.4898-2.9245-3.5805 1.882-9.3927 2.1319-11.36 5.4362 0.72102 3.6258-4.4781 12.802 1.7891 11.244 4.7476-0.0488 9.3786-5.9152 13.379-0.64648 7.9706 6.3769 15.323 13.993 18.412 23.979 3.3462 8.7066 7.5648 18.068 6.7208 27.64-2.5319 6.5892-4.4857 15.467 1.8677 20.758 0.13506 0.85019-4.3485-1.3394-5.727-2.3162-5.5719-4.391-11.423-8.6393-16.232-13.883-4.6085-6.2237-4.7781-14.659-10.031-20.471-0.89023 4.8836 0.9431 9.9806-4.5468 12.544-8.2706 7.9074-18.427 14.174-23.705 24.747-3.8322 7.2548-10.765 12.029-15.229 18.783-7.2645-4.4556-4.2172 0.86883-2.0254 5.4902-3.4237 2.9842-9.9445-4.7044-9.4722-0.54211 0.65992 3.6532 1.9647 7.7177-2.7836 8.4738-3.7357 2.9538-7.9315 1.0682-11.477-1.1172-2.9169 6.1083-10.972 4.5673-16.225 7.0215-3.5583 1.3005-8.894-0.18796-9.0437 4.9438-3.6726 5.1375 0.72354 6.988 5.1214 8.8586 9.7057 6.1419 21.146 8.7334 32.379 10.315 5.6847 0.0508 11.355-0.42728 17.02-0.84375-3.2966 3.414-6.6338 9.0553-2.5131 13.197 5.0009 7.8998 10.313 15.718 15.037 23.856 7.3955-1.3844 13.967-4.7029 19.715-9.5352-6.3008-1.8804-12.771 1.8086-18.869-0.0332-4.8026-5.0943-8.3169-11.965-6.1641-19.033 0.61815-4.7393 1.278-9.497 1.4766-14.289-9.6113-0.19488-19.343 0.25814-28.877 0.15234-1.9579-4.0396-6.3502-4.914-10.295-5.3535-1.9496-0.69738-5.9188-2.3687-1.666-2.9766 6.7514-2.1109 14.343-0.93251 20.434-5.2305 5.4468-4.2732 13.962-2.5956 17.955-8.9414 3.8576-5.2277 7.3724-11.413 5.3906-18.139-0.24849-6.9473 7.3285-10.833 10.865-16.004 4.427-6.3817 11.149-15.342 20.039-11.512 6.237 4.3483 2.249 11.642 3.3356 17.664 1.691 8.9502-4.6655 18.081-0.70868 26.662 3.2104 6.4854 11.43 4.4031 16.898 3.4512-1.1366 4.5404-4.0444 7.9461-8.9297 8.4238-7.3226 2.8436-16.985 5.932-19.512 14.258-0.63196 2.1551 0.71376 5.0439-2.3887 4.8535-2.1323 1.0736-6.4527 3.2207-5.7334 5.0175 3.1141 4.3486 5.3363 3.8246 9.1143 2.4864 12.83 1.8505 25.3-2.7068 37.799-4.6649 3.6336-0.8838 7.4254-2.3819 9.3635-5.8136 6.7628 7.2715 17.424 4.0488 25.838 6.1406 2.7977 6.2175-5.4524 9.8761-9.875 11.789 5.0533 1.8684 10.425 1.2467 15.695 1.6094 5.7892-8.1018 14.499-15.059 24.96-14.697 12.592-1.7724 24.662-6.0424 36.249-11.09 7.6497-1.0156 16.226-0.5403 22.354-6.1855 5.8893-3.8496 7.6026-10.812 7.0801-17.455 0.21602-5.967 6.0867-9.6545 6.7852-15.609 7.5498-0.64368 15.26-0.77732 22.721-2.4258 0.87448-3.2387 0.48023-6.7104-0.92773-9.7363 7.6203-2.325 10.06-11.152 15.098-16.527 4.7934-6.0029 7.8204-13.084 11.301-19.783 5.8667-3.6555 8.871-10.306 8.9707-17.057 2.0167-5.8362 6.7908-11.096 4.56-17.653-1.4476-7.1029 1.8753-13.865 0.30331-20.949-1.2624-7.2712-0.32058-15.385-4.5078-21.738-0.53841 1.5085-1.0768 3.0169-1.6152 4.5254zm-133.19 81.482c-0.63072 5.0496 9.884-1.1746 8.582 4.9726 0.63347 3.0677-0.40794 8.0183 4.291 5.8106 7.5245 0.41241 13.574-4.0606 19.65-7.7637 2.2262-1.5448 7.2846 4.0326 6.5803 5.8114-4.7444 6.8011-10.49 12.805-15.714 19.12 3.4383 0.7099 1.2863 0.89276-0.32579 3.5224 2.6253 0.94675 10.728-0.45447 9.9741 2.8934-7.6191 6.8073-14.704 14.587-24.554 18.228-4.0608 1.5698-8.2639 4.2098-12.287 5.0464-7.039-3.7296-15.074-0.57451-22.133 1.332 3.2124 4.2675-3.9418 3.6956-6.4824 5.4102-4.1471 0.63487-9.4207 2.6403-13.297 0.41601-6.6401-6.2598-12.077-13.787-13.504-23.021-7.346 1.0509-13.776 5.3679-18.643 10.812 3.3708-9.2294-7.0726-2.6408-5.1208-7.6765 3.8732-8.1958 2.2312-17.367 2.8142-26.115 8.0622 7.7648 16.752 15.235 27.639 18.656-7.326 4.1118-4.3816 4.7542 2.4375 3.5762 5.742-0.84601 11.601-2.1157 16.281-5.7676-8.3671-1.0016-17.566-1.1368-24.246-7.1699-3.4391-1.254-2.2751-8.52 1.3125-7.8357 7.5342 0.22896 11.912-7.1389 19.018-8.5236 4.5528-2.2724 11.831-3.0342 13.479-8.248 2.6706 0.026 4.837-5.1936 8.7988-3.7578 5.1344 0.65145 10.351 0.16794 15.436-0.67773zm93.473 17.91c2.4237 3.2914-3.4199 0.66299 0 0zm-164.15 40.727c0.0495 0.80037-0.5422-0.33584 0 0zm0.76562 7.0606c1.4598 0.67694-1.1576 5e-3 0 0zm-0.89844 4.2031c2.9249 2.2135-3.414 1.86 0 0zm-4.1191 0.51953c1.105 1.6509-1.7425 2.4283-0.44922 0.20703 0.10337-0.0822 0.30782-0.29785 0.44922-0.20703z" fill="#302f2e" stroke="#302f2e"/> <path d="m234.84 444c-7.0666 0.0895-15.024 0.64902-19.52 6.9492-5.5171 3.5664-2.1654 5.4858 2.961 7.1223 3.7748 0.82959 8.8888 5.7511 11.785 3.2781 1.8385-3.0645 3.6562-7.6073 8.0117-5.0742 6.8315 1.9727 10.506 5.6432 15.853 10.051-0.59298-11.455-8.7946-18.143-18.609-22.356z" fill="#3b3938" stroke="#3b3938"/> <path d="m186.13 446.6c-10.499 0.14241-20.916 1.9076-30.621 5.9746-7.4228 1.0979-14.508-3.459-21.863-2.9941-8.2449 3.0402-12.23 12.014-18.138 17.96-5.8362 7.4932-13.695 14.663-14.991 24.501 4.6152-1.3852 7.5272-8.2532 10.217-9.8066 0.39561 6.2644-4.3271 13.923 1.4082 19.066 3.9036 3.2059 8.0383 8.7054 4.0488 13.562-2.6577 3.793 4.0182 5.9644 5.5566 9.2754 10.843 13.358 18.936 28.668 29.244 42.496 6.3578 9.8043 5.9872 24.088 16.467 30.808 9.546 4.8514 18.909 12.46 30.068 11.516-4.6847-4.9854-11.203-7.3823-17.068-10.645 0.27001-5.2346 6.649-3.3184 10.131-5.1956 4.3952-1.6219 10.077-1.3072 13.393-4.9528 5.9648 4.2687 12.439-0.98929 17.932-3.4004-0.34376-2.5875-1.1818-5.1374 2.2227-4.0957 3.0205-0.41421 9.4749-1.34 6.2266-5.248 4.8387-8.8297 13.781-14.623 18.227-23.826 6.3897-10.9 18.062-16.904 26.422-26.072 1.755-3.7946-1.0866-8.8508-2.0332-12.855-4.7747 11.646-15.416 18.871-24.064 27.305-7.3069 9.7575-12.863 23.799-26.227 26.389-1.4451 2.2843-4.8227-0.10762-7.043 1.6445-6.1292 3.9788-11.758 9.3113-19.517 9.9119-3.4875-3.0382-2.7249 6.0944-7.6195 3.179-4.0614-0.94019-7.9806-0.12976-10.115 3.7156-1.2999 1.3061-4.5937 6.1232-5.1708 2.375-2.5036-6.6768-4.8451-14.38-0.70416-20.779 2.0916-4.6247 3.2992-10.152 2.6729-14.918 4.4462 4.3745 6.6165 2.6823 8.002-2.5312 4.9909-6.2087 2.4385-14.353 4.5723-21.328 4.652-9.1318 6.8173-19.387 5.283-29.605-0.45124-5.0837-0.3424-10.189-0.35526-15.286-5.8454 9.487-12.461 18.556-17.205 28.691-6.213-4.6233-12.981-8.987-18.074-14.83-1.9166-6.6782 2.7903-13.557 6.5742-18.826 8.13-9.3215 19.655-14.835 30.326-20.705 4.7237-1.407 8.2421-4.7247 11.842-7.9277-6.6743-0.84385-13.359-1.6892-20.025-2.543z" fill="#3a3835" stroke="#3a3835"/> <path d="m200.11 449.04c-10.884 9.993-24.748 16.256-35.312 26.547-5.8026 7.0108-5.5516 17.264-0.50564 24.631 1.9993 3.5551 4.1051 7.0534 5.8299 10.756 4.1258-5.7542 8.2938-11.906 14.977-14.803 2.6841-1.5875 3.5289-5.473 5.7676-6.9258-0.12955 4.1411-0.77183 8.856 4.584 6.7871 3.6586-0.82979 8.9921-0.26548 8.5488 4.8281 0.82594 8.7703-6.6984 15.71-7.2129 24.4-2.141 8.5988-8.4329 15.206-13.354 22.299 2.4738 5.8762 1.7477 12.346 2.0332 18.549 3.3223 0.95492 8.537 6.6292 9.9336 1.2695 1.9151-4.5441 4.0698-9.2821 9.6998-9.7562 7.6705-1.2612 8.0521-10.283 11.71-15.671 5.4034-10.964 14.37-20.761 14.801-33.607 0.70625-2.2479-1.0749-8.2175 2.7324-5.082 6.2222 3.7855 11.16 13.436 5.0293 19.518-6.8128 12.534-13.712 26.779-10.453 41.463 11.408-9.121 19.18-21.644 29.098-32.131 4.8191-5.232 12.112-9.738 13.574-17.127-1.402-10.064-6.7148-19.212-10.42-28.556-2.6733-7.7896-2.9959 1.8859-2.8296 5.397 0.9285 6.6377 0.93114 13.482-3.1265 19.179-1.4851 3.5317-4.4582-2.8084-5.3599-4.6114-2.0401-3.6657-1.7479-9.1233-4.6465-11.73-7.6091-2.0612-15.158-9.8236-23.447-6.4668-4.5778 2.5008-4.5144 8.5718-8.0176 11.939-1.3862-7.3639-2.0284-14.841-3.2715-22.229-5.8629 2.4393-4.7548-3.6157-9.125-2.2578-6.4639 0.68526-11.668 4.9954-16.262 9.0176-3.9996-0.57058-9.9459-4.5736-12.641 0.42774-1.1616 2.2406-0.46461 5.3305-1.7774 7.1992-1.9026-3.4799-4.9063-11.013 1.3535-11.805 8.4661-1.3211 11.663-10.449 18.049-15.055 5.8969-5.5054 12.071-10.702 18.09-16.072-2.5861 0.069-5.7708-1.4632-8.0488-0.32032z" fill="#454447" stroke="#454447"/> <path d="m202.18 449.3c-9.5225 8.0856-18.789 16.58-27.094 25.867-4.2297 1.6452-10.756 2.4389-10.799 8.3242-0.49137 5.3109 2.7954 9.9725 4.6523 14.689 3.712-2.0181 7.1803-4.1556 6.5664-8.793-0.37227-4.8796 4.6934-1.7216 7.2148-1.0137 6.3883 2.0419 8.9587-6.4636 14.639-7.4961 4.4989-3.0016 3.7104 2.7648 8.5742 1.041 2.8994 1.2797 1.3719 7.5584 2.5802 10.731 0.54692 4.1796 1.2592 8.3368 2.1698 12.453 6.5246 0.21319 9.1022-6.4654 11.201-11.436 3.3981-5.3998 10.364-0.19865 14.516 1.5098 3.3342 2.006 8.2349 2.2251 7.875 7.3223 1.6133 6.4755 5.1824 13.073 11.781 15.545 3.8366-7.0813 8.4198-14.559 6.518-22.964-1.4384-4.3715 2.254-10.672-3.5337-12.379-6.3418-4.9816-9.4228-6.0988-4.4745 2.2998 2.2826 2.8108-3.0218 2.8886-3.8301 0.56836-2.6012-4.229-6.16-3.3802-9.9766-1.2949-3.37-2.1718-9.4641-4.5039-9.9297-9.377 1.1891-4.5865 1.1488-13.314 7.5781-13.371 6.0797 2.2447 9.7253 9.5467 17.043 9.1016-0.55947-4.6169-0.12702-9.9434-4.9668-12.197-5.26-3.7164-12.41-8.3015-18.84-6.0644-2.7256 1.5441-3.1041 7.3737-6.8178 4.1964-7.2542-2.476-14.982-8.4216-22.647-7.2628z" fill="#4b4b4d" stroke="#4b4b4d"/> <path d="m197.56 451.3c-11.746 5.1227-23.06 11.694-32.92 19.895-6.5139 6.4344-12.202 15.284-11.736 24.723 2.2198 7.437 10.55 10.44 15.66 15.568 2.7756 2.1071 5.7256 3.965 8.6973 5.7793 3.0906-7.5197 7.2443-14.383 11.645-21.164 1.3957 9.8282 0.40151 19.958-4.3574 28.783-3.6336 7.0797 0.22866 15.797-4.9668 22.352-1.3864 3.6816-5.7339-2.3555-8.4426-2.8027-1.5894 0.75957 0.33662 6.7311 0.15552 9.7578 0.42898 9.0046-8.0912 16.947-4.3123 26.111 1.1669 4.4892 2.7424 8.8586 3.9979 13.323 6.0087 0.16268 9.3816-5.5087 13.188-8.8164 3.6448-0.56423 9.5843 2.5753 11.334-1.623 5.0044 5.283 6.6291 5.1276 4.4453-2.0117 7.1135-1.121 12.225-6.3854 18.127-9.7949 2.9037-0.58468 5.2271 2.6747 6.8457-1.4199 14.368-3.4403 20.103-18.786 28.557-29.057 7.8302-6.8028 16.431-13.412 21.161-22.906-3.9127-13.013-10.434-25.357-11.154-39.166-0.53873-9.0174-3.5073 1.8596-4.6492 5.4123-2.1636 7.6158 4.3318 14.302 6.0801 21.422 1.6916 4.3472 4.6373 10.026 0.0488 13.74-7.2879 7.9647-15.741 14.867-21.67 24.033-3.4755 4.2106-7.3839 8.9857-11.182 12.244 0.23571-13.539 8.107-25.196 13.947-36.945 1.4581-10.441-7.6223-21.117-18.221-21.486 0.94957 11.585-1.7089 23.42-8.8672 32.562-4.6356 7.2207-7.8636 15.449-12.059 22.73-5.2391 1.9781-11.695 3.4039-13.428 9.6387-0.29619 4.6187-5.675 1.8408-4.125-1.6328-0.0342-4.1446-0.15598-8.3724-1.4629-12.346 6.296-8.0441 12.618-16.7 13.9-27.131 2.9557-8.1072 9.5253-17.011 4.6152-25.764-2.2662-3.9849-7.5424-3.7421-11.475-3.2422 1.009-5.7888-1.2076-8.1563-7.0469-6.7773-1.952 4.6121-5.1734 8.3306-9.7852 10.281-3.0193 1.925-5.329 5.483-7.4531 7.7363-4.4048-6.8016-9.0513-15.593-4.0039-23.361 6.059-8.1242 16.037-12.194 23.84-18.418 4.5918-3.3289 9.5117-6.4132 12.701-11.238-1.877 0.33724-3.7539 0.67448-5.6309 1.0117z" fill="#3e3d3f" stroke="#3e3d3f"/> <path d="m237.51 457.44c-8.2263 0.63241-9.6384 10.674-10.672 17.129-0.54692 7.7237 8.4719 9.7472 12.541 14.586 3.0021-0.75369 6.5991-4.3369 8.7832-0.51367 2.9367 3.8907 7.829 2.639 11.479 0.72152 2.3786-1.9559-3.0291-6.8035-2.8915-10.388-1.4-4.0059-0.24398-9.9428-2.8192-12.64-6.5016-0.86779-9.4456-9.0826-16.421-8.895z" fill="#5d5b5d" stroke="#5d5b5d"/> <path d="m423.96 466.98c-4.8484 2.066-10.947 3.8124-11.289 9.998-1.4597 2.5228 1.2626 7.4706-2.8848 7.1191-3.6909 1.0613-1.7601 7.5938-6.2871 8.8144-7.6037 5.5097-14.665 12.172-18.984 20.627 3.7728 2.1812 6.3122 9.5011 10.908 8.334 6.0834-1.068 12.629-3.528 14.934-9.8652 3.9334-6.3816 7.9009-13.512 7.2598-21.281 5.2902 1.784 2.9946-6.5807 4.4453-9.8184-1.693-5.7224 9.2598-6.053 5.0858-11.438-1.1321-1.6281-0.26972-4.7839-3.1874-2.4894z" fill="#3b3b3c" stroke="#3b3b3c"/> <path d="m501.34 469.73c-2.7603 6.5409 0.0785 13.791-0.9043 20.35-2.9903 5.0733-5.1691 10.548-5.4785 16.445-1.6603 6.1436-9.1207 8.1476-10.344 14.658-4.4519 10.33-11.889 19.186-18.695 27.984-2.6734 2.1286-9.6756 1.174-5.4824 5.7266 1.9088 3.2384 5.964 5.5173 5.002 9.0156 10.22-4.1055 15.585-8.3466 24.166-15.096 10.036-10.357 21.182-23.284 18.998-38.814-1.4036-15.505-2.0869-31.095-4.5252-46.454-0.9121 2.0612-1.8242 4.1224-2.7363 6.1836z" fill="#383734" stroke="#383734"/> <path d="m272.1 472.48c-3.7967 1.0553-7.1938 3.6149-11.314 3.2695-2.0786 12.778 3.4145 25.086 7.9434 36.854 4.1474 11.162 6.1416 25.015 17.271 31.695 4.9642 4.3751 10.033 9.0717 16.371 11.252 8.2595 7.983 20.928 11.93 31.879 7.2598 19.177-5.3974 38.453-5.1114 58.252-4.2648 3.234-1.1852 9.7887-1.8733 7.0919-6.6395-1.9178-4.765 4.4118-7.5597 6.0547-11.564 1.7666-3.049 7.2079-5.821 2.334-8.668-2.7485-2.3347-5.3586-7.0628-8.6268-7.3478-7.0555 2.8374-13.159 9.7332-21.094 8.7384-1.0704-3.391 0.81078-9.6154-4.6699-8.2988-6.0212 1.6504-2.4515-6.4207-8.5625-3.2266-6.6171 2.0179-13.606-0.42212-20.127 1.3789-2.5948 0.64531-3.9443 4.375-6.8398 1.7949 0.73009 7.3112-7.8047 7.6698-12.712 10.115-5.5683 1.2711-9.4404 5.9089-14.624 7.6658-2.2624-0.0176-5.9924 1.2386-7.2168-0.10937-0.12514-6.7823 4.8729-12.983 2.1523-19.832-2.8934-12.461-6.8863-25.247-14.627-35.6-5.4573-5.5034-10.791-12.093-18.354-14.645z" fill="#2a2a29" stroke="#2a2a29"/> <path d="m422.1 474.87c-4.9188 0.41683-2.359 8.0973 1.8594 5.9942 3.2217-1.5876 1.5-6.3124-1.8594-5.9942z" fill="#39393a" stroke="#39393a"/> <path d="m109.57 476.58c-7.0404 8.6628-14.46 17.637-16.1 29.039 8.8885 3.4375 17.484 7.863 24.76 14.168 2.9846-4.7168 5.4112-11.022 1.541-15.994-3.0868-3.9928-8.8987-7.5693-5.9629-13.49 1.0437-2.9888 0.8086-6.7473 1.125-9.4668 9.2105-1.3018-4.3534-6.3625-5.3633-4.2559z" fill="#2f2e2c" stroke="#2f2e2c"/> <path d="m260.45 478.24c-1.1794 4.4744 0.11168 9.2613 2.2793 13.234 3.1134-5.7603 2.1054-12.67 0.041-18.588-0.77344 1.7845-1.5469 3.569-2.3203 5.3535z" fill="#37322b" stroke="#37322b"/> <path d="m431.44 520.4c-5.4326 2.3226-10.561 5.2618-15.584 8.3574 7.6134-0.57773 14.668 3.1928 18.732 9.5508 3.6125 7.2175 3.441-1.3132 4.1669-5.0272 1.1843-5.0676-2.1271-12.376-7.1502-12.957z" fill="#4a2d1c" stroke="#4a2d1c"/> <path d="m420.83 525.82c-9.9491 6.8318-18.388 15.789-24.52 26.197 8.298 0.2496 16.328 3.6882 24.602 2.6953-3.363-3.9064-8.9022-5.1545-12.725-8.043 2.8301-5.8949 8.4437-12.943 15.637-11.977 5.1463 2.349 7.486 8.0143 11.25 11.926 1.4238-4.4476 5.1958-9.946 0.45704-13.457-3.5943-4.0352-9.1339-8.5243-14.701-7.3418z" fill="#6d531f" stroke="#6d531f"/> <path d="m401.79 526.75c-7.1362 0.74759-7.806 3.0175-2.0039 6.7051 4.0971 3.6078 9.5548 9.4278 5.793 0.19922-1.3934-1.8901 5e-3 -9.2727-3.7891-6.9043z" fill="#2d2d2c" stroke="#2d2d2c"/> <path d="m294.54 594.04c-5.6217-0.0584-2.6462 8.9909 1.8594 5.6934 2.4491-1.6185 1.0246-5.7718-1.8594-5.6934z" fill="#2d2d2c" stroke="#2d2d2c"/> <path d="m289.84 594.63c-5.1389 0.17733-2.873 7.7235 1.5977 6.1172 4.008-1.133 2.1835-6.5337-1.5977-6.1172z" fill="#2d2d2c" stroke="#2d2d2c"/> <path d="m421.46 530.38c-9.1203 1.5089-15.623 9.8819-18.342 18.285 6.6364 3.4122 14.485 9.8834 22.105 5.0938 4.7713-2.6812 8.0051-7.2589 11.896-10.975-4.27-4.8763-8.0612-12.708-15.66-12.404zm-1.248 9.2402c4.6185-0.93979 9.3037 5.5057 4.3848 8.3828-3.01 1.6806-9.195 0.51716-10.096-2.5195 0.27252-2.9188 2.4578-6.1297 5.7109-5.8633z" fill="#9e7e1e" stroke="#9e7e1e"/> <path d="m270.34 534.54c-9.2956 0.0115-14.992 8.3111-19.963 14.938-4.6751 5.6092-12.916 11.338-10.681 19.826 1.1805 6.0988-3.1537 11.848-7.2626 15.869-5.6317 1.7673-11.475 3.3484-16.594 6.6035-7.3676 3.3404-16.377 1.3408-23.174 6.5098-4.9831 1.6818 1.8243 4.5045 4.0098 6.2402 3.5274 3.0576 9.3592 0.75147 11.662 5.3476 2.2789 3.9552 8.3444 0.8951 12.275 1.7488 5.0486 0.12404 11.125-0.56244 15.637 0.10281-0.40941 8.5158-4.4707 18.306 1.6445 25.844 2.1011 4.7083 6.4305 9.0333 12 7.8418 5.9234-0.51495 11.446-1.4098 16.506-4.7461 12.956-6.8931 28.077-4.8649 42.062-7.5405 9.4507-1.8852 19.265-0.98472 28.674-2.6529 5.9807-2.4807 10.289-12.531 3.5625-16.471-7.2601-2.2226-16.508 1.1018-22.336-3.8965 0.42845-2.7927 5.8888-11.401 0.30324-8.1721-7.056 1.4085-7.6128 11.248-15.112 11.774-11.27 1.867-22.486 5.4903-34.02 5.0137-0.95864-5.0371-0.6417-11.016 4.5879-13.533 5.882-4.7004 14.186-5.083 19.955-9.2949 3.0944-4.3465 4.1632-9.7085 6.5996-14.396-4.0691-0.28919-8.1408-0.53185-12.219-0.65235 3.7716 4.3604-3.7168 4.1339-6.332 2.8594-5.246-5.1474-0.57473-12.775-0.45508-19.055 0.26151-6.5259-0.17943-13.078 0.38867-19.564-0.9841-5.5835-5.6206-11.047-11.721-10.543zm-12.559 84.459c1.1337 1.5814-2.836 1.6911-0.43946 0.0176 0.14167-0.0405 0.29544-0.0554 0.43946-0.0176z" fill="#2a2a28" stroke="#2a2a28"/> <path d="m419.66 535.61c-6.6647-0.13908-11.447 9.0347-8.1076 14.01 5.5046 3.5288 14.631 5.3114 18.379-1.6248 3.2489-6.5683-3.3826-13.122-10.271-12.385z" fill="#c8a61f" stroke="#c8a61f"/> <path d="m281.35 541.19c0.49526 8.8064-1.9884 18.096 1.1445 26.473 4.2735-4.6551 1.8879-12.383 5.0117-17.092 4.4302 0.92995 8.1449 4.2597 12.926 4.4219-5.1535-7.0171-12.052-12.523-18.996-17.691-0.0286 1.2962-0.0573 2.5924-0.0859 3.8887z" fill="#8d4f1c" stroke="#8d4f1c"/> <path d="m458.3 542.09c-4.7331 0.57124-2.5252 8.1865 1.791 5.9258 3.1136-1.5875 1.8382-6.4605-1.791-5.9258z" fill="#2e2d29" stroke="#2e2d29"/> <path d="m287.49 546.56c-6.1066 0.30254-5.0558 8.4685-6.123 12.822-0.91052 4.6689-0.53699 9.4283-0.39062 14.145 5.9687-0.76173 14.142 0.0288 16.688-6.918 2.0685-4.5832 2.7085-10.552 0.78516-14.992-3.1295-2.1919-6.9492-4.9648-10.959-5.0566z" fill="#c98c1a" stroke="#c98c1a"/> <path d="m295.21 553.43c0.78998 5.3434 0.55665 14.311-6.3438 15.24-4.1992 1.6932-4.6445-1.152-4.0625-4.6992-0.0671-10.166-4.3593-0.39743-5.5341 4.2902-0.22229 3.5259-7.3589 14.109 4e-3 9.8812 7.9595-2.8368 15.847-5.7973 23.845-8.439 1.9361-4.9957 1.528-11.856-1.6465-15.797-2.5309-1.2315-8.1467-8.2672-6.4969-2.319l0.12666 0.99195z" fill="#a65b17" stroke="#a65b17"/> <path d="m299.17 556.5c1.262 4.8109 1.7409 9.9975-0.7754 14.531 7.8402-2.7275 16.825-1.8948 23.201-7.9531-8.0008-3.1145-16.132-6.1268-23.275-10.998 0.2832 1.4733 0.5664 2.9466 0.84961 4.4199z" fill="#923211" stroke="#923211"/> <path d="m367.92 554.08c-5.3261 0.34441-11.136-0.53573-15.697 2.8242 8.1112 3.5702 18.239 0.90201 26.412 2.4062-0.64144 6.3047-2.5806 13.33-9.3359 15.467-4.8727 2.5147-10.181 5.3863-15.621 2.4473-6.3926-1.4845-12.987 0.73049-19.416 0.84961-3.4209 0.80009-5.439 5.4008-8.5547 5.5606-1.3093-3.2151 1.6538-9.4203-3.5391-8.8359-1.9226-0.53354-6.1298-1.4758-5.9277-2.9824 4.3309-3.5664 8.9463-6.785 12.812-10.883-13.306 2.6471-26.913 3.7714-39.613 9.2988-5.3336 2.7179-13.826 2.2541-14.254 9.877 4.7223-1.5347 9.9767-3.8904 8.4874 2.9446-0.99483 8.2004 1.6719 5.506 5.1827 0.56543 3.8878-4.5096 8.5171-8.792 14.342-10.541 2.6795 8.9478 8.4672 17.369 16.133 22.664 9.219 2.2622 17.939-2.9257 26.801-4.373-3.3047-3.8247 1.0674-3.9494 3.9062-4.5508 3.9833-0.88124 8.4197-0.55893 11.725 2.0664 12.521-5.5529 25.987-10.521 35.09-21.318 1.6615-3.1003 9.4074-4.8746 6.9297-8.2012-5.122-7.6919-15.44-3.9-22.983-5.0954-4.2915-0.12734-8.5845-0.23956-12.878-0.18977z" fill="#373737" stroke="#373737"/> <path d="m356.66 554.69c-11.759 1.4757-23.604 3.6605-34.775 7.584-4.4071 3.3468-8.7161 6.8213-12.91 10.432 3.5362 2.9849 8.7769 4.7363 12.367 6.5098-0.0828 3.7324 0.26691 10.051 5.4863 8.5195 4.89-1.2028 7.2945-7.5877 13.029-6.0859 5.8613-0.70578 11.775-1.7483 17.428 0.63476 6.4493 1.2349 12.12-3.4042 17.613-6.0801 7.3822-4.2772 6.7427-13.833 8.584-21.041-8.9418-0.10761-17.879-0.53632-26.822-0.47266z" fill="#414243" stroke="#414243"/> <path d="m442.59 562.34c-5.0316-0.74476-3.3975 6.0364-6.1445 8.8848-5.1204 4.8894-4.4634 12.154-5.0742 18.568-3.456 8.6599-13.485 11.585-22.078 11.271-9.2725 1.1882-16.984 7.3704-26.272 8.7889-10.265 3.8496-22.66 1.3866-31.369 9.1408-3.6992 2.12-5.796 7.2339-9.5762 8.2598-8.3655 0.0609-17.229-0.71847-25.243 1.5096-5.5673 2.7391 6.0482 3.5656 9.0937 3.3192 13.996 0.2301 27.757 3.2877 41.784 2.1861 14.859-0.0231 28.521-6.8156 42.358-11.39 15.419-5.9292 30.233-13.831 42.643-24.854 0.35059-8.4332 2.2473-17.537-2.75-25.057-2.1068-3.2502-3.8898-9.6341-7.3711-10.629z" fill="#383735" stroke="#383735"/> <path d="m295.25 588.7c-4.9305 1.5425-1.6408 10.558 2.5566 6.3457 2.265-2.192 1.1573-7.3962-2.5566-6.3457z" fill="#2c2c2c" stroke="#2c2c2c"/> <path d="m303.08 593.77c-4.8728 1.0228-9.4486 3.0656-14.072 4.8516 7.0103 1.0122 14.292 1.9076 19.943 6.668-2.1388-3.0491-1.9165-11.944-5.8711-11.52z" fill="#2c2c2c" stroke="#2c2c2c"/> <path d="m256.76 616.38c-5.5217 0.6724-1.2755 9.3492 2.8516 5.875 2.4504-2.1269 0.15472-6.204-2.8516-5.875z" fill="#2e2e2a" stroke="#2e2e2a"/> </g> </svg>