<?xml version='1.0' encoding='utf-8'?>
<svg xmlns="http://www.w3.org/2000/svg" viewBox="0 0 744.09 1052.4"> <defs> <filter id="b" x="-.30979" y="-.34187" width="1.6196" height="1.6837"> <feGaussianBlur stdDeviation="13.3237"/> </filter> <linearGradient id="d" x1="78.611" x2="527.35" gradientUnits="userSpaceOnUse"> <stop stop-color="#2e2e2e" offset="0"/> <stop stop-color="#6f6f6f" offset="1"/> </linearGradient> <radialGradient id="c" cx="303" cy="225.74" r="160.61" gradientTransform="matrix(.73767 0 0 1.0385 152.11 10.35)" gradientUnits="userSpaceOnUse"> <stop stop-color="#16ffec" offset="0"/> <stop stop-color="#009" stop-opacity=".80435" offset="1"/> </radialGradient> <radialGradient id="a" cx="385.04" cy="178.65" r="51.611" gradientTransform="matrix(1 0 0 .90616 0 16.765)" gradientUnits="userSpaceOnUse" spreadMethod="repeat"> <stop stop-color="#e7f4f6" offset="0"/> <stop stop-opacity=".04673" offset="1"/> </radialGradient> </defs> <g transform="matrix(.73767 0 0 .79839 152.11 64.562)" fill="#232222"> <path d="m-54.283 457.91c-18.828 37.178-31.423 77.132-45.05 116.43-30.666 93.51-58.812 187.88-82.259 283.47-2.4439 4.9736 2.7699 8.112 7.0978 8.5252 31.723 8.1831 61.781 22.938 89.086 40.807 24.668 15.581 42.213 39.19 63.641 58.659 37.934 36.53 76.56 72.494 114.08 109.28 5.6013 0.3973 2.0409-7.4108 2.4938-10.638-10.909-107.25-16.867-215.04-17.899-322.84 0.40272-33.947-0.78324-68.208 3.4724-101.9 3.9734-20.018 10.551-39.42 14.529-59.468 3.6124-16.66 7.8691-33.267 11.009-49.976-7.3047-23.763-12.007-48.345-18.252-72.213-7.2294-2.004-15.928-0.23589-23.701-0.83338h-116.67l-1.5784 0.69448z"/> <path d="m518.41 457.91c-6.0416 24.36-11.362 48.97-17.993 73.268 6.7411 32.814 14.221 65.652 23.013 97.827 6.1202 33.408 5.7606 67.74 6.3972 101.65-0.29547 101.9-7.1224 203.68-15.707 305.18-0.86606 12.631-2.9547 25.366-3.3504 37.902 4.8577 3.3246 9.1173-6.6335 13.465-9.0408 45.637-44.597 93.76-87.199 137.89-133.18 30.269-30.47 69.901-49.666 110.21-63.106 5.004-2.2646 12.031-1.556 15.847-5.6506-2.2394-16.617-7.7943-32.807-11.671-49.162-27.153-101.82-56.664-203.17-93.323-302.02-7.0524-18.15-13.972-36.624-22.95-53.802-15.171-1.3219-31.145-0.18495-46.623-0.56463-31.489 0.2709-63.207-0.54249-94.553 0.40683l-0.65376 0.28765z"/> <path d="m572.01 384.16c-4.4171 3.1098-5.1801 9.8599-8.2275 14.314-9.08 19.363-24.745 34.629-42.059 46.737-3.2397 3.0565-2.1891 8.4735-2.8401 12.405 4.1538 3.4258 11.589 0.53074 16.982 1.4844 39.883-0.37122 79.823 0.79662 119.67-0.72605 5.3957-0.24915 3.0447-6.2948 0.82075-8.902-5.034-7.2049-8.9407-16.842-17.267-20.613-2.2246 0.36511-3.988 1.391-5.5243-1.1049-13.517-14.239-28.908-26.289-45.852-36.097-5.0647-2.5468-9.9327-6.912-15.704-7.4973z"/> <path d="m32.43 383.43c-21.192 12.002-42.24 25.253-58.905 43.216-1.5738 1.6775-2.4237 5.4669-4.8298 2.4938-6.8174-0.50514-10.182 7.4277-13.798 12.029-3.0132 5.3943-7.194 10.568-8.7409 16.508 4.975 3.1935 12.286 0.56257 18.183 1.4205 40.444-0.17571 81.078 0.41453 121.41-0.50508 3.8772-2.2938 0.4754-8.026-0.28411-11.648-3.8981-5.87-11.45-8.006-15.995-13.432-11.566-10.16-21.513-22.139-27.74-36.367-3.2611-3.8923-3.7889-13.375-9.2977-13.715z"/> </g> <path d="m281.57 436.48c-1.7437 1.8247-0.089 5.392-0.0988 7.8235 2.4898 14.426 7.7227 28.379 15.346 40.49 6.271 8.9066 14.216 17.605 24.815 19.667 13.593 3.2316 27.352 6.3435 41.278 7.1364 19.112 0.27015 38.431-0.0282 57.118-4.8452 8.7186-1.8757 17.989-3.6853 24.794-10.38 13.393-12.595 20.723-31.191 24.522-49.59 0.26697-3.234 1.8657-7.0723 0.26345-10.069-2.272-0.83766-4.4681 1.7974-6.7561 2.143-12.627 4.1493-26.168 4.2471-39.33 5.0201-14.08 0.51507-28.169 0.18206-42.253 0.0723-1.7063-2.9696-5.8336-5.0248-8.3732-2.0322-4.0641 3.3019-9.6283 1.5477-14.35 2.157-21.709 0.0661-43.69 0.53818-65.089-3.7424-3.9382-0.79705-7.6925-2.677-11.477-3.9563l-0.41165 0.10693z" fill="#560900"/> <path d="m367.33 78.137c-20.921 12.267-40.543 27.169-56.911 45.97-30.42 32.431-50.38 76.833-52.917 123.19-1.742 34.55 3.2594 68.955 7.6481 103.08 3.186 18.867 4.8772 38.51 12.342 56.056 0.9107 2.982 3.4564 4.3488 6.1939 3.4828 38.74-0.30945 77.451 2.6833 116.2 1.317 22.88-0.15213 45.905-2.5561 68.695-1.5486 1.4901 0.83397 3.464 1.0299 4.3312-1.0837 6.6941-14.476 8.7603-30.965 11.641-46.764 5.6277-37.174 10.335-74.798 9.443-112.54-2.2162-43.923-19.537-86.289-47.112-118.4-16.312-20.211-36.292-36.414-57.756-49.648-5.4598-4.4216-12.849-1.9526-19.201-3.1494-0.85514 0.0563-1.7687-0.30767-2.5933 0.0377z" fill="url(#c)"/> <g transform="matrix(.73767 0 0 .79839 152.11 64.562)" fill="url(#d)"> <path d="m451.36 154.39c-1.1284 6.0946 3.1222 12.276 4.066 18.346 11.142 34.777 13.13 71.805 9.6348 108.07-4.382 44.326-9.4191 88.83-20.235 132.03-2.8105 8.3586-4.1828 19.77-12.722 24.086-13.966-4.5198-29.08-1.4243-43.498-1.6955-55.275 2.5796-110.63 2.5529-165.91 0.11414-14.718 0.13289-29.729-2.2712-44.295 0.16084-2.8545 1.7212-6.4532 1.9826-8.2075-1.2942-9.5307-14.932-11.543-33.44-15.429-50.536-7.522-44.545-14.295-89.538-15.286-134.83-0.73062-31.459 6.361-62.296 15.91-91.987-0.14055-5.3065-5.9315-1.5995-7.4794 0.86227-29.996 30.877-45.343 72.207-59.882 111.92-7.3557 17.01-6.8827 35.795-8.81 53.897-2.0933 42.504 1.2899 85.201 9.5018 126.87 13.44 71.643 37.492 140.77 65.155 208.03 5.3917 3.024 12.909 0.49425 19.13 1.3258 13.485-0.45637 27.354 0.91944 40.596-0.69448 0.39457-5.9118-5.8156-10.865-8.0825-16.373-6.8385-11.665-14.294-23.083-19.886-35.398 9.3722 5.9256 16.126 15.425 23.818 23.458 8.357 9.136 15.407 19.545 23.496 28.624 16.863 0.89197 34.104 0.12756 51.113 0.38252 4.4673-3.0279 0.41564-10.27 1.0703-15.15-1.3332-13.284-0.28718-28.041 9.7888-37.883 5.3925-7.0225 16.192-2.6081 19.698 4.1984 10.08 13.456 6.421 31.036 5.2717 46.53 3.2708 4.9207 11.854 1.095 17.267 2.3044 12.03-0.29973 24.343 0.6007 36.196-0.45175 14.317-17.587 28.212-36.494 45.658-51.35 2.8684-2.2849-0.3299 3.1307-0.69448 4.1353-8.1518 15.465-18.264 30.05-26.218 45.482 3.0157 4.7095 11.781 1.0072 17.095 2.1843 14.2-0.45667 28.785 0.91862 42.742-0.69448 35.099-85.851 65.216-175.17 73.773-268.04 2.9547-34.957 1.8373-70.287-2.6201-105.06-7.8059-27.035-18.484-53.28-30.747-78.571-9.9361-19.448-21.75-39.036-38.291-53.286-0.927-0.92574-1.7873-0.0192-2.6832 0.2841zm-19.887 307.31c2.7707 1.3389 1.0781 6.272 1.5784 8.7757-1.4175 28.574-15.303 56.708-37.502 75.004-15.473 9.6833-34.705 11.786-52.591 14.489-30.312 3.1287-61.319 4.1854-91.31-1.753-16.875-3.6812-35.961-5.2527-48.122-19.05-18.647-18.896-29.868-45.18-30.683-71.658 0.0631-2.3942 0.49097-7.8499 4.2616-4.9876 20.6 10.058 44.254 8.6431 66.606 9.9416 17.172 0.0687 34.549 1.4708 51.613-0.50303 4.2676-1.2364 7.7681-5.9261 11.892-1.5065 7.8302 5.8869 17.947 1.9222 26.929 2.6979 27.031-1.2414 54.537 0.12079 81.134-5.3899 5.7831-1.0405 10.58-4.7822 16.194-6.0609z"/> <path d="m185.79 658.37c-9.4682 0.20244-18.956 0.13417-28.411 0.63134-4.1326 2.8702 1.3918 7.9437 1.9159 11.565 15.678 37.265 34.169 73.275 53.548 108.71 6.3241 16.275 4.4539 34.4 6.7554 51.486 1.5082 10.982 1.0621 25.862 12.658 31.536 18.133 9.5028 39.299 5.0102 58.872 5.5424 23.606-0.94505 47.421 1.9839 70.901-1.0598 9.8573-1.9493 21.082-7.9133 22.129-19.098 4.5718-21.801 2.1218-44.725 8.1759-66.165 6.6453-14.605 15.844-27.963 22.452-42.636 12.704-25.969 25.681-52.117 36.245-78.897-3.4578-4.3143-11.74-0.83883-17.091-1.9573-14.154 0.32688-28.64-0.65476-42.588 0.48262-9.4118 12.702-17.442 26.808-27.177 39.465-15.868 20.813-32.078 42.477-53.663 57.816-3.5801 2.6302-8.435 4.9008-12.311 1.5152-21.3-13.185-36.498-34.023-51.796-53.566-11.399-14.566-20.875-30.649-31.899-45.268-9.256-1.0411-19.259 0.11904-28.716-0.0977z"/> <path d="m235.32 657.93c-4.6414 3.1277 2.3995 7.9372 3.5922 11.415 10.887 16.048 23.828 31.248 39.813 42.502 3.0506 1.4725 9.0587 6.2112 10.607 0.72605 1.6457-17.269-0.80545-34.682-2.5885-51.865-3.9851-4.1634-11.738-1.0037-17.2-2.2152-11.406-0.21323-22.816-0.67437-34.223-0.56271z"/> <path d="m319.85 658.72c-2.7294 17.507-3.7626 35.564-3.6934 53.349 1.1755 5.9026 8.6835 2.1737 11.522-0.2841 18.658-13.151 33.163-31.418 45.046-50.729-1.0004-5.2534-8.5326-1.8132-12.28-2.9619-13.287 0.15046-26.799-0.59536-39.942 0.33825l-0.65376 0.28765z"/> </g> <g transform="matrix(.73767 0 0 .79839 152.11 64.562)" fill="#370e0e"> <path d="m77.224 282.5c-15.349 4.6442-24.862 19.042-34.476 30.893-18.81 25.43-32.416 54.176-46.242 82.528-2.3945 3.7724 2.9233 5.6866 5.3349 2.9673 11.331-6.0477 21.709-15.288 34.661-17.236 3.6836 4.6317 4.7218 11.568 8.0181 16.731 8.8571 15.775 20.285 31.144 35.955 40.564 5.3866 0.082 2.0198-7.5027 2.2685-10.878-5.8559-40.911-7.9309-82.458-3.5627-123.63 0.31551-6.8745 1.8038-13.917 0.91545-20.74-0.73795-0.92301-1.6952-1.4526-2.8726-1.1996z"/> <path d="m526.77 282.47c-3.0922 4.4894 0.19287 10.884-0.18259 16.063 2.6106 30.751 1.9432 61.71 1.1612 92.529-0.90822 16.172-4.4903 32.404-5.6821 48.298 4.5152 1.8576 8.4185-4.1915 12.233-6.3621 15.493-13.579 27.213-31.292 34.297-50.522 3.1531-3.1014 7.6844 1.691 11.017 2.3991 10.246 4.4306 19.144 11.745 29.231 16.131 4.9824-2.4024-1.2206-7.9695-1.9887-11.459-18.291-35.124-35.166-72.479-64.431-99.881-4.3357-3.578-9.7972-7.5979-15.655-7.1951z"/> </g> <path d="m375.3 544.48c-3.0922 1.2958-4.981 4.6649-7.1166 7.2374-4.1116 5.2049-5.8523 12.067-5.4477 18.791 0.73729 16.518 3.4107 32.919 3.9022 49.443 0.0314 5.2644 0.67577 10.77-0.60588 15.853-1.2168 2.399-4.3489 0.88531-6.0948 0.11479-8.8817-4.8458-15.921-12.849-22.694-20.544-9.64-11.502-16.245-25.461-25.694-37.176-3.7554-4.6787-7.1395-9.7996-11.423-13.952-1.981-1.1607-3.2868 1.9031-1.8799 3.354 12.547 22.942 26.623 44.947 41.682 66.099 8.976 12.42 19.23 23.872 30.941 33.387 1.9315 1.2548 4.4639 3.7587 6.7055 1.7599 14.301-9.3307 24.985-23.54 35.3-37.379 14.424-19.91 27.232-41.106 39.419-62.63 1.064-1.6184 2.2175-4.4288-0.40713-4.8844-2.6495 0.96968-3.957 4.142-5.947 6.1015-9.1534 11.126-16.971 23.381-24.743 35.626-5.7767 9.155-13.496 16.604-21.062 24.014-3.7944 3.1493-7.9409 6.7452-12.824 7.3585-2.5139 0.26024-2.7013-3.1564-2.7853-5.0488-0.76724-20.301 2.8285-40.479 3.9109-60.719 0.39582-6.4687-0.78288-13.233-4.6142-18.405-2.1866-2.9548-4.2596-6.2981-7.3239-8.274-0.38515-0.12959-0.79418-0.22584-1.1974-0.12755z" fill="#370e0e"/> <path d="m223.07 931.92c-1.6674-4.2107-44.459-49.287-89.421-94.196-6.9167-6.9085-13.673-14.215-15.015-16.237-8.9509-13.49-30.158-31.534-50.962-43.36-17.118-9.7311-39.043-18.81-48.092-19.915l-4.6307-0.56548 0.10704-3.5801c0.27823-9.305 19.671-87.002 39.282-157.38 10.438-37.461 19.895-69.222 28.493-95.693 22.111-68.075 35.795-97.403 45.444-97.403 0.97024 0 2.161-0.68785 2.6461-1.5286s3.3031-3.7839 6.2623-6.5404c4.9344-4.5965 5.6117-5.6112 8.172-12.244 10.543-27.312 29.377-62.764 42.16-79.361 8.0307-10.427 13.347-14.67 20.65-16.483l3.636-0.90243 1.9769-6.3395c9.3841-30.093 22.644-60.412 33.805-77.297 7.2874-11.025 17.708-22.047 20.853-22.058 0.55422-2e-3 2.9467-4.1491 5.3166-9.2159 16.439-35.146 44.854-66.846 80.01-89.26 8.6007-5.4833 10.458-6.3512 15.118-7.0629 8.0184-1.2248 18.612-0.45367 20.648 1.5031 0.89687 0.86215 5.2819 3.8755 9.7446 6.6963 33.09 20.916 62.193 53.666 78.31 88.123 2.3699 5.0668 4.7624 9.214 5.3166 9.2159 3.1454 0.011 13.566 11.033 20.853 22.058 11.161 16.885 24.421 47.204 33.805 77.297l1.9769 6.3395 3.636 0.90243c7.3033 1.8126 12.62 6.056 20.65 16.483 12.783 16.597 31.617 52.05 42.16 79.361 2.5603 6.6325 3.2376 7.6471 8.1719 12.244 2.9592 2.7565 5.7773 5.6997 6.2624 6.5404s1.6758 1.5286 2.6461 1.5286c9.6495 0 23.333 29.328 45.444 97.403 8.5981 26.471 18.055 58.232 28.493 95.693 19.611 70.381 39.003 148.08 39.281 157.38l0.10704 3.5801-4.6307 0.56548c-9.0492 1.1051-30.974 10.184-48.092 19.915-20.803 11.826-42.011 29.87-50.962 43.36-1.3414 2.0217-8.0981 9.3282-15.015 16.237-44.962 44.909-87.754 89.985-89.421 94.196-0.67438 1.7028-1.5393 2.5948-2.5162 2.5948-1.8639 0-2.6839-2.1367-1.5644-4.0769 3.2428-5.6199 11.342-118.03 15.008-208.29 1.2732-31.351 1.2685-112.46-8e-3 -128.54-1.2902-16.261-3.1647-27.938-5.5108-34.331-1.0476-2.8542-4.4426-17.764-7.5445-33.133s-5.769-28.085-5.9269-28.257-0.44112 0.18665-0.62945 0.79839-2.9802 9.7348-6.2043 20.274c-9.8134 32.078-22.461 66.954-35.901 99-7.8095 18.62-24.385 54.147-29.884 64.051-5.3958 9.7182-6.2259 13.693-6.9663 33.352-0.88538 23.509-2.8346 33.467-7.4003 37.805-5.6232 5.3436-15.711 7.658-33.206 7.6185-15.946-0.036-32.74-0.036-48.686 0-17.496 0.0395-27.583-2.2749-33.206-7.6185-4.5657-4.3387-6.515-14.297-7.4003-37.805-0.74042-19.659-1.5706-23.634-6.9663-33.352-5.4989-9.9039-22.075-45.431-29.884-64.051-13.44-32.046-26.088-66.922-35.901-99l-6.2043-20.274c-0.18833-0.61174-0.47156-0.97102-0.62942-0.79839s-2.825 12.888-5.9269 28.257-6.4969 30.279-7.5445 33.133c-2.3461 6.3923-4.2206 18.07-5.5108 34.331-1.2759 16.08-1.2806 97.19-8e-3 128.54 3.6656 90.264 11.765 202.67 15.008 208.29 1.1194 1.9402 0.29946 4.0769-1.5645 4.0769-0.97687 0-1.8418-0.892-2.5161-2.5948zm-2.3262-18.991c-6.4889-61.323-12.567-173.54-13.382-247.07-0.69044-62.302 1.5229-95.962 7.1923-109.38 0.7422-1.7564 3.2167-12.535 5.4989-23.952s5.2633-25.987 6.6247-32.378l2.4753-11.62-1.8376-6.7427c-2.9181-10.707-8.7406-36.824-11.043-49.534l-2.1112-11.654-4.4172-2.7168c-5.6521-3.4764-16.739-15.388-21.368-22.958-3.1374-5.1304-8.4638-16.06-10.471-21.487l-0.66911-1.8089-5.6965 3.1543c-5.9122 3.2737-20.929 14.034-25.958 18.601-6.294 5.7152-12.44 12.316-13.47 14.468-1.0478 2.1884-1.1357 2.2182-2.5257 0.85663-1.3796-1.3513-1.5246-1.343-3.4507 0.19898-9.4619 7.5747-25.935 48.263-46.494 114.84-20.067 64.983-48.402 170.4-58.691 218.35l-2.4824 11.569 4.4343 0.97898c14.599 3.2231 42.063 16.03 59.404 27.702 15.491 10.427 29.124 22.913 37.883 34.698 2.4116 3.2445 9.2628 10.779 15.225 16.743 31.803 31.814 82.368 84.017 84.825 87.574 0.69133 1.0007 1.3246 1.7515 1.4074 1.6684s-0.3234-4.6286-0.90248-10.101zm338.6-21.466c23.317-24.122 38.672-39.777 56.576-57.679 5.9622-5.9618 12.813-13.494 15.225-16.739 8.7594-11.785 22.392-24.271 37.883-34.698 17.341-11.672 44.805-24.479 59.404-27.702l4.4343-0.97898-2.4823-11.569c-5.6168-26.178-22.282-91.51-34.926-136.92-23.681-85.046-42.515-142.74-56.821-174.05-5.8866-12.885-9.748-19.271-13.439-22.226-1.9261-1.542-2.0711-1.5503-3.4507-0.19898-1.3901 1.3615-1.4779 1.3317-2.5257-0.85663-1.0304-2.152-7.1761-8.753-13.47-14.468-5.0295-4.5669-20.046-15.328-25.958-18.601l-5.6966-3.1543-0.66907 1.8089c-2.0074 5.427-7.3337 16.357-10.471 21.487-4.6292 7.5698-15.716 19.482-21.368 22.958l-4.4172 2.7168-2.1112 11.654c-2.3024 12.71-8.1249 38.827-11.043 49.534l-1.8376 6.7427 2.4752 11.62c1.3614 6.3911 4.3425 20.961 6.6247 32.378s4.7567 22.195 5.4989 23.952c9.5851 22.684 9.889 126.79 0.78208 267.86-2.5966 40.221-6.5242 88.575-7.8354 96.463l-0.44091 2.6523 3.9648-4.5478c2.1807-2.5013 13.923-14.85 26.095-27.442zm-189.32-135.51c0.6519-1.0083 10.676-0.92476 11.326 0.0943 0.33599 0.5268 6.3366 0.81428 16.597 0.79517 17.698-0.033 23.068-0.92037 29.89-4.9384 6.3489-3.74 7.6165-8.7497 9.0458-35.749 1.1737-22.173 2.0929-27.428 5.8838-33.636 8.9933-14.729 29.584-60.71 44.143-98.575 37.516-97.569 56.607-189.69 52.97-255.58-0.46738-8.467-1.3203-18.981-1.8953-23.364-0.64331-4.9036-0.77764-8.1488-0.34928-8.4353 0.87281-0.58379-4.5351-18.413-10.886-35.889-11.717-32.243-24.309-55.835-36.899-69.13-2.6787-2.8288-4.9657-5.0401-5.0821-4.9141s1.4159 5.4505 3.4051 11.832c6.4353 20.645 9.5719 42.061 9.5707 65.345-6.7e-4 13.51-0.5336 20.98-3.3647 47.166-4.3214 39.969-9.2088 70.886-13.694 86.625-2.6402 9.2644-3.7876 11.949-6.3993 14.97-2.1911 2.5346-3.861 2.7408-6.8292 0.84311-1.9899-1.2722-4.0534-1.2649-34.784 0.12393-47.849 2.1624-61.499 2.1946-106.26 0.25049-38.212-1.6598-40.508-1.6807-42.53-0.38823-2.99 1.9116-4.6557 1.71-6.8508-0.8293-2.6117-3.0212-3.7591-5.7053-6.3993-14.97-4.4854-15.739-9.3728-46.656-13.694-86.625-2.8311-26.186-3.364-33.656-3.3647-47.166-2e-3 -23.284 3.1355-44.699 9.5707-65.345 1.9892-6.3817 3.5215-11.706 3.4051-11.832s-2.4034 2.0854-5.0821 4.9141c-12.59 13.295-25.182 36.887-36.899 69.13-6.3508 17.477-11.759 35.306-10.886 35.889 0.42843 0.28657 0.29407 3.5317-0.34925 8.4353-9.9521 75.86 11.766 183.72 61.393 304.89 11.057 26.998 27.431 62.157 33.824 72.627 3.7908 6.2087 4.7101 11.464 5.8838 33.636 1.4256 26.931 2.7067 32.026 8.9748 35.694 7.2853 4.2628 14.641 5.4096 32.596 5.0824 7.4488-0.13577 13.756-0.57568 14.016-0.97758zm0.24625-86.268c-14.939-9.5651-37.991-40.074-63.218-83.668-8.5235-14.729-19.543-35.51-19.543-36.855 0-0.59036 0.77827-1.0686 1.739-1.0686 1.2222 0 3.5808 2.0761 7.9365 6.9859 13.516 15.236 24.539 30.166 32.448 43.951 5.7652 10.048 13.56 19.95 21.148 26.863 6.3515 5.7865 12.267 9.6134 13.543 8.7605 1.3637-0.9122 0.28496-25.032-1.9431-43.447-2.4862-20.548-2.3221-27.066 0.86495-34.367 2.3311-5.3398 6.627-10.788 9.3645-11.876 5.2779-2.0983 11.471 2.6539 15.477 11.876 3.1742 7.3073 3.3366 13.847 0.85382 34.367-2.2281 18.415-3.3069 42.535-1.9432 43.447 1.2751 0.85294 7.191-2.974 13.542-8.7605 7.588-6.913 15.383-16.814 21.148-26.863 7.9092-13.785 18.932-28.715 32.448-43.951 4.3557-4.9098 6.7143-6.9859 7.9365-6.9859 0.96072 0 1.739 0.47824 1.739 1.0686 0 1.3449-11.019 22.126-19.543 36.855-25.227 43.594-48.279 74.103-63.218 83.668-2.5402 1.6264-4.9657 2.9572-5.3899 2.9572s-2.8496-1.3307-5.3899-2.9572zm11.291-5.3291c8.7622-6.3704 22.742-23.025 36.271-43.21 9.9988-14.918 25.656-40.977 32.621-54.29l1.6706-3.1936-3.4396 3.9919c-5.0839 5.9004-15.484 20.011-19.124 25.948-1.7502 2.8542-5.092 8.3669-7.4263 12.25-5.1175 8.5138-15.493 20.458-23.307 26.831-8.3836 6.8372-13.244 8.1212-15.263 4.0317-1.54-3.1191-0.67402-26.738 1.6831-45.907 2.3942-19.47 2.2624-26.017-0.65113-32.335-2.0341-4.411-7.4433-11.177-8.9355-11.177s-6.9014 6.7665-8.9355 11.177c-2.9135 6.318-3.0453 12.864-0.65113 32.335 2.3571 19.169 3.2231 42.788 1.6831 45.907-2.019 4.0894-6.8798 2.8055-15.263-4.0317-7.8141-6.3728-18.19-18.317-23.307-26.831-2.3343-3.8835-5.6762-9.3962-7.4263-12.25-3.6402-5.9366-14.04-20.047-19.124-25.948l-3.4396-3.9919 1.6706 3.1936c10.91 20.855 31.186 53.258 44.463 71.056 11.278 15.118 28.42 31.792 31.009 30.163 0.43804-0.27571 2.7881-1.9493 5.2224-3.7191zm-20.655-149.54c-19.262-1.6367-41.209-6.2665-48.905-10.316-13.939-7.3357-26.278-26.906-31.846-50.511-2.0248-8.5829-2.6164-17.46-1.3367-20.054 1.3449-2.7268 2.9286-2.851 6.241-0.48924 6.9497 4.9552 21.157 6.8089 56.865 7.4192 23.396 0.39986 27.682 0.29726 28.769-0.68873 4.179-3.7897 4.8141-3.883 8.6846-1.2756l3.6085 2.4308 26.95-0.46959c35.148-0.61243 49.416-2.4911 56.323-7.4161 5.2512-3.7442 7.4656-1.0468 6.819 8.3064-1.704 24.648-16.614 53.02-32.741 62.3-5.2045 2.9948-21.51 7.1455-36.646 9.3285-8.0443 1.1602-35.273 2.0738-42.785 1.4355zm42.416-5.4368c10.111-1.5517 27.113-5.388 31.624-7.1351 8.8922-3.4443 18.383-14.119 24.966-28.082 5.5842-11.843 9.7996-26.889 9.7996-34.978v-2.7951l-3.6188 1.9672c-7.9974 4.3475-31.183 6.7491-65.156 6.7491-16.187 0-20.483-0.21505-20.483-1.0254 0-0.56399-0.98956-1.6581-2.199-2.4314-2.4082-1.5396-3.7678-1.1494-6.2223 1.7861-1.3534 1.6185-2.0333 1.6707-21.765 1.6707-33.858 0-57.054-2.407-65.042-6.7491l-3.6188-1.9672v2.7951c0 8.0892 4.2154 23.136 9.7996 34.978 6.5838 13.963 16.074 24.637 24.966 28.082 7.2574 2.8111 31.94 7.6491 43.796 8.5842 8.56 0.6752 35.124-0.21686 43.153-1.4491zm-190.32-95.42c0-0.44385-0.48926-4.1264-1.0872-8.1835-4.7912-32.507-5.8132-66.87-2.8194-94.8 0.63544-5.928 1.214-12.858 1.2857-15.399l0.13036-4.6212-2.2586 0.5258c-4.1147 0.95788-6.6188 2.8758-13.348 10.223-11.334 12.376-22.819 31.829-37.259 63.112-4.8516 10.511-8.8211 19.397-8.8211 19.747s3.5685-1.9198 7.9299-5.044c8.6564-6.2006 18.778-11.865 21.169-11.845 2.2934 0.0186 3.5197 1.1732 3.7597 3.54 0.1192 1.1753 1.412 4.861 2.8728 8.1903 5.2541 11.974 13.534 23.538 22.156 30.944 5.186 4.4545 6.2897 5.0882 6.2897 3.6115zm331.6-3.6115c8.6224-7.4061 16.902-18.97 22.156-30.944 1.4609-3.3293 2.7536-7.015 2.8728-8.1903 0.24005-2.3668 1.4664-3.5214 3.7597-3.54 2.3904-0.0194 12.513 5.6446 21.169 11.845 4.3614 3.1241 7.9299 5.3939 7.9299 5.044s-3.9694-9.236-8.821-19.747c-14.44-31.283-25.924-50.736-37.259-63.112-6.7293-7.3474-9.2334-9.2653-13.348-10.223l-2.2587-0.5258 0.13042 4.6212c0.0715 2.5416 0.65026 9.4714 1.2857 15.399 2.9938 27.93 1.9719 62.293-2.8194 94.8-1.2566 8.5252-1.2832 8.9904-0.51445 8.9904 0.31505 0 2.8877-1.9883 5.7169-4.4185zm-113.99-0.7217c33.238-1.639 38.31-1.6241 39.486 0.11645 0.83214 1.2317 1.0721 1.0968 2.4845-1.3972 6.821-12.044 14.045-54.002 19.962-115.94 4.0572-42.471-0.40606-76.796-14.316-110.1-15.533-37.186-45.282-72.467-79.369-94.128-4.4541-2.8305-9.3395-6.0445-10.856-7.1423-2.589-1.8737-3.323-1.9923-11.979-1.936l-9.2208 0.06-7.0078 4.2339c-51.552 31.146-87.525 81.364-98.468 137.46-5.5882 28.646-5.4291 49.942 0.76847 102.89 5.4321 46.411 10.976 74.607 16.633 84.595 1.4124 2.4939 1.6524 2.6289 2.4845 1.3972 1.1808-1.7478 7.6017-1.7252 46.125 0.16247 33.01 1.6175 66.659 1.5266 103.27-0.27893z"/> <path transform="matrix(1.3354 0 0 .76525 -134.82 7.5835)" d="m436.65 178.65a51.611 46.768 0 1 1-103.22 0 51.611 46.768 0 1 1 103.22 0z" fill="url(#a)" filter="url(#b)" opacity=".66667"/> <path transform="matrix(1.3354 0 0 2.468 -139.15 64.412)" d="m436.65 178.65a51.611 46.768 0 1 1-103.22 0 51.611 46.768 0 1 1 103.22 0z" fill="url(#a)" filter="url(#b)" opacity=".66667"/> </svg>